<svg xmlns="http://www.w3.org/2000/svg" width="1920" height="1080" viewBox="0 0 1920 1080" preserveAspectRatio="xMidYMid meet" style="width: 100%; height: 100%; transform: translate3d(0px, 0px, 0px); transform-origin: 0px 0px 0px;"><defs><clipPath id="animationMask_bfTGW1aYzj"><rect width="1920" height="1080" x="0" y="0"></rect></clipPath><clipPath id="cp_CIF8QUKu"><path d="M0,0 L1920,0 L1920,1350 L0,1350z"></path></clipPath><clipPath id="cp_lJe6XKCu"><path d="M0,0 L1920,0 L1920,1350 L0,1350z"></path></clipPath><clipPath id="cp_o8FQxxZG"><path d="M0,0 L1920,0 L1920,1350 L0,1350z"></path></clipPath><clipPath id="cp_nbzBvrRp"><path d="M0,0 L1920,0 L1920,1080 L0,1080z"></path></clipPath></defs><g clip-path="url(#animationMask_bfTGW1aYzj)"><g transform="matrix(1,0,0,1,960,540)" opacity="1" style="user-select: none;"><g opacity="1" transform="matrix(1,0,0,1,0,0)"><path fill="rgb(255,255,255)" fill-opacity="1" d=" M960,-540 C960,-540 960,540 960,540 C960,540 -960,540 -960,540 C-960,540 -960,-540 -960,-540 C-960,-540 960,-540 960,-540z"></path></g></g><g clip-path="url(#cp_nbzBvrRp)" transform="matrix(1,0,0,1,0,0)" opacity="1"><g transform="matrix(4,0,0,4,1778.4699999999998,445.47)" opacity="1" style="user-select: none;"><g opacity="1" transform="matrix(1,0,0,1,205.001,86.499)"><path fill="rgb(221,209,198)" fill-opacity="1" d=" M76.777,22.605 C75.176,22.176000000000002 73.532,23.125999999999998 73.103,24.726 C72.67299999999999,26.326999999999998 73.62400000000001,27.971 75.224,28.4 C76.824,28.828999999999997 78.469,27.879 78.898,26.279 C79.327,24.679 78.378,23.033 76.777,22.605z M-67.223,59.604 C-68.824,59.176 -70.46900000000001,60.126 -70.897,61.726 C-71.325,63.326 -70.37599999999999,64.971 -68.776,65.4 C-67.175,65.82900000000001 -65.53,64.879 -65.102,63.279 C-64.672,61.678000000000004 -65.623,60.033 -67.223,59.604z M37.777,-86.395 C36.176,-86.825 34.532000000000004,-85.874 34.103,-84.274 C33.673,-82.673 34.623999999999995,-81.029 36.224,-80.6 C37.824,-80.17099999999999 39.469,-81.12100000000001 39.898,-82.721 C40.327000000000005,-84.321 39.378,-85.967 37.777,-86.395z M191.777,24.605 C190.176,24.176000000000002 188.532,25.125999999999998 188.103,26.726 C187.673,28.326999999999998 188.623,29.971 190.224,30.4 C191.825,30.828999999999997 193.469,29.879 193.898,28.279 C194.327,26.679 193.378,25.033 191.777,24.605z M135.777,-46.395 C134.176,-46.824000000000005 132.532,-45.874 132.103,-44.274 C131.673,-42.673 132.624,-41.029 134.224,-40.6 C135.82399999999998,-40.171 137.469,-41.120999999999995 137.898,-42.721 C138.327,-44.321 137.378,-45.967000000000006 135.777,-46.395z M202.777,-7.395 C201.176,-7.824 199.532,-6.8740000000000006 199.103,-5.274 C198.673,-3.673 199.624,-2.029 201.224,-1.6 C202.82399999999998,-1.171 204.469,-2.121 204.898,-3.721 C205.327,-5.321 204.378,-6.967 202.777,-7.395z M-86.43,31.341 C-88.403,30.275000000000002 -90.29,29.68 -92.114,29.431 C-92.443,27.648 -93.02600000000001,25.817 -93.93,23.926 C-94.058,23.688 -94.334,23.498 -94.526,23.5 C-94.716,23.498 -95.005,23.689999999999998 -95.152,23.929 C-96.20700000000001,25.886 -96.801,27.759 -97.052,29.57 C-98.96000000000001,29.923000000000002 -100.815,30.584 -102.643,31.415 C-102.839,31.52 -102.999,31.773 -103,31.97 C-102.998,32.165 -102.842,32.439 -102.653,32.567 C-100.81700000000001,33.64 -98.904,34.306 -96.916,34.571 C-96.563,36.473 -95.90599999999999,38.322 -95.079,40.143 C-94.97399999999999,40.339 -94.72099999999999,40.5 -94.526,40.501 C-94.331,40.498999999999995 -94.058,40.342999999999996 -93.93,40.153 C-92.855,38.307 -92.19,36.384 -91.929,34.386 C-90.147,34.056000000000004 -88.31700000000001,33.472 -86.426,32.566 C-86.18900000000001,32.437000000000005 -85.99900000000001,32.162 -86.001,31.969 C-85.99900000000001,31.778000000000002 -86.191,31.488 -86.43,31.341z M189.999,5.5 C189.999,2.187 187.311,-0.5 183.999,-0.5 C180.686,-0.5 177.999,2.187 177.999,5.5 C177.999,8.813 180.686,11.5 183.999,11.5 C187.311,11.5 189.999,8.814 189.999,5.5z M183.999,7.5 C182.896,7.5 181.999,6.603 181.999,5.5 C181.999,4.397 182.896,3.5 183.999,3.5 C185.102,3.5 185.999,4.397 185.999,5.5 C185.999,6.603 185.102,7.5 183.999,7.5z M48.999,-69.5 C45.686,-69.5 42.999,-66.813 42.999,-63.5 C42.999,-60.187 45.686,-57.5 48.999,-57.5 C52.311,-57.5 54.999,-60.187 54.999,-63.5 C54.999,-66.813 52.311,-69.5 48.999,-69.5z M48.999,-61.5 C47.896,-61.5 46.999,-62.397 46.999,-63.5 C46.999,-64.603 47.896,-65.5 48.999,-65.5 C50.102000000000004,-65.5 50.999,-64.603 50.999,-63.5 C50.999,-62.397 50.102000000000004,-61.5 48.999,-61.5z M-157.001,44.499 C-161.419,44.499 -165.001,48.081 -165.001,52.499 C-165.001,56.917 -161.419,60.499 -157.001,60.499 C-152.583,60.499 -149.001,56.917 -149.001,52.499 C-149.001,48.081 -152.583,44.499 -157.001,44.499z M-157.001,56.499 C-159.207,56.499 -161.001,54.705000000000005 -161.001,52.499 C-161.001,50.293 -159.207,48.499 -157.001,48.499 C-154.79500000000002,48.499 -153.001,50.293 -153.001,52.499 C-153.001,54.705000000000005 -154.79500000000002,56.499 -157.001,56.499z M-199.001,74.499 C-202.314,74.499 -205.001,77.18599999999999 -205.001,80.499 C-205.001,83.81099999999999 -202.314,86.499 -199.001,86.499 C-195.68800000000002,86.499 -193.001,83.81099999999999 -193.001,80.499 C-193.001,77.18599999999999 -195.68800000000002,74.499 -199.001,74.499z M-199.001,82.499 C-200.104,82.499 -201.001,81.60199999999999 -201.001,80.499 C-201.001,79.396 -200.104,78.499 -199.001,78.499 C-197.898,78.499 -197.001,79.396 -197.001,80.499 C-197.001,81.60199999999999 -197.898,82.499 -199.001,82.499z"></path></g></g><g transform="matrix(4,0,0,4,2075,577)" opacity="1" style="user-select: none;"><g opacity="1" transform="matrix(1,0,0,1,218.338,108.499)"><path fill="rgb(255,173,76)" fill-opacity="1" d=" M122.663,54.5 C119.35,54.5 116.663,57.187 116.663,60.5 C116.663,63.813 119.35,66.5 122.663,66.5 C125.975,66.5 128.663,63.813 128.663,60.5 C128.663,57.187 125.975,54.5 122.663,54.5z M122.663,62.5 C121.56,62.5 120.663,61.603 120.663,60.5 C120.663,59.398 121.56,58.5 122.663,58.5 C123.765,58.5 124.663,59.398 124.663,60.5 C124.663,61.603 123.765,62.5 122.663,62.5z M-124.559,54.605 C-126.161,54.175999999999995 -127.805,55.126 -128.233,56.726 C-128.662,58.326 -127.712,59.971000000000004 -126.111,60.401 C-124.51100000000001,60.829 -122.866,59.879000000000005 -122.437,58.279 C-122.008,56.678000000000004 -122.958,55.032999999999994 -124.559,54.605z M-79.337,-66.5 C-82.65,-66.5 -85.337,-63.813 -85.337,-60.5 C-85.337,-57.187 -82.65,-54.5 -79.337,-54.5 C-76.024,-54.5 -73.337,-57.187 -73.337,-60.5 C-73.337,-63.813 -76.024,-66.5 -79.337,-66.5z M-79.337,-58.5 C-80.44,-58.5 -81.337,-59.397 -81.337,-60.5 C-81.337,-61.603 -80.44,-62.5 -79.337,-62.5 C-78.23400000000001,-62.5 -77.337,-61.603 -77.337,-60.5 C-77.337,-59.397 -78.23400000000001,-58.5 -79.337,-58.5z M86.233,-41.659 C84.259,-42.725 82.37299999999999,-43.32 80.547,-43.569 C80.218,-45.352000000000004 79.63600000000001,-47.183 78.733,-49.074 C78.60600000000001,-49.312 78.32900000000001,-49.502 78.135,-49.5 C77.947,-49.502 77.657,-49.309999999999995 77.508,-49.071 C76.454,-47.114 75.86200000000001,-45.241 75.611,-43.43 C73.703,-43.077 71.847,-42.416000000000004 70.02,-41.585 C69.825,-41.480000000000004 69.664,-41.227000000000004 69.663,-41.03 C69.66499999999999,-40.835 69.82000000000001,-40.561 70.009,-40.433 C71.845,-39.36 73.75699999999999,-38.694 75.746,-38.429 C76.09899999999999,-36.527 76.75699999999999,-34.678000000000004 77.585,-32.856 C77.69,-32.661 77.94200000000001,-32.5 78.137,-32.499 C78.333,-32.501000000000005 78.605,-32.657000000000004 78.733,-32.847 C79.809,-34.693 80.473,-36.616 80.736,-38.614 C82.518,-38.943999999999996 84.34599999999999,-39.528 86.237,-40.434 C86.47399999999999,-40.562 86.666,-40.838 86.664,-41.031 C86.665,-41.222 86.47200000000001,-41.512 86.233,-41.659z"></path></g></g><g transform="matrix(4,0,0,4,1778.4699999999998,445.47)" opacity="1" style="user-select: none;"><g opacity="1" transform="matrix(1,0,0,1,205.001,86.499)"><path fill="rgb(221,209,198)" fill-opacity="1" d=" M76.777,22.605 C75.176,22.176000000000002 73.532,23.125999999999998 73.103,24.726 C72.67299999999999,26.326999999999998 73.62400000000001,27.971 75.224,28.4 C76.824,28.828999999999997 78.469,27.879 78.898,26.279 C79.327,24.679 78.378,23.033 76.777,22.605z M-67.223,59.604 C-68.824,59.176 -70.46900000000001,60.126 -70.897,61.726 C-71.325,63.326 -70.37599999999999,64.971 -68.776,65.4 C-67.175,65.82900000000001 -65.53,64.879 -65.102,63.279 C-64.672,61.678000000000004 -65.623,60.033 -67.223,59.604z M37.777,-86.395 C36.176,-86.825 34.532000000000004,-85.874 34.103,-84.274 C33.673,-82.673 34.623999999999995,-81.029 36.224,-80.6 C37.824,-80.17099999999999 39.469,-81.12100000000001 39.898,-82.721 C40.327000000000005,-84.321 39.378,-85.967 37.777,-86.395z M191.777,24.605 C190.176,24.176000000000002 188.532,25.125999999999998 188.103,26.726 C187.673,28.326999999999998 188.623,29.971 190.224,30.4 C191.825,30.828999999999997 193.469,29.879 193.898,28.279 C194.327,26.679 193.378,25.033 191.777,24.605z M135.777,-46.395 C134.176,-46.824000000000005 132.532,-45.874 132.103,-44.274 C131.673,-42.673 132.624,-41.029 134.224,-40.6 C135.82399999999998,-40.171 137.469,-41.120999999999995 137.898,-42.721 C138.327,-44.321 137.378,-45.967000000000006 135.777,-46.395z M202.777,-7.395 C201.176,-7.824 199.532,-6.8740000000000006 199.103,-5.274 C198.673,-3.673 199.624,-2.029 201.224,-1.6 C202.82399999999998,-1.171 204.469,-2.121 204.898,-3.721 C205.327,-5.321 204.378,-6.967 202.777,-7.395z M-86.43,31.341 C-88.403,30.275000000000002 -90.29,29.68 -92.114,29.431 C-92.443,27.648 -93.02600000000001,25.817 -93.93,23.926 C-94.058,23.688 -94.334,23.498 -94.526,23.5 C-94.716,23.498 -95.005,23.689999999999998 -95.152,23.929 C-96.20700000000001,25.886 -96.801,27.759 -97.052,29.57 C-98.96000000000001,29.923000000000002 -100.815,30.584 -102.643,31.415 C-102.839,31.52 -102.999,31.773 -103,31.97 C-102.998,32.165 -102.842,32.439 -102.653,32.567 C-100.81700000000001,33.64 -98.904,34.306 -96.916,34.571 C-96.563,36.473 -95.90599999999999,38.322 -95.079,40.143 C-94.97399999999999,40.339 -94.72099999999999,40.5 -94.526,40.501 C-94.331,40.498999999999995 -94.058,40.342999999999996 -93.93,40.153 C-92.855,38.307 -92.19,36.384 -91.929,34.386 C-90.147,34.056000000000004 -88.31700000000001,33.472 -86.426,32.566 C-86.18900000000001,32.437000000000005 -85.99900000000001,32.162 -86.001,31.969 C-85.99900000000001,31.778000000000002 -86.191,31.488 -86.43,31.341z M189.999,5.5 C189.999,2.187 187.311,-0.5 183.999,-0.5 C180.686,-0.5 177.999,2.187 177.999,5.5 C177.999,8.813 180.686,11.5 183.999,11.5 C187.311,11.5 189.999,8.814 189.999,5.5z M183.999,7.5 C182.896,7.5 181.999,6.603 181.999,5.5 C181.999,4.397 182.896,3.5 183.999,3.5 C185.102,3.5 185.999,4.397 185.999,5.5 C185.999,6.603 185.102,7.5 183.999,7.5z M48.999,-69.5 C45.686,-69.5 42.999,-66.813 42.999,-63.5 C42.999,-60.187 45.686,-57.5 48.999,-57.5 C52.311,-57.5 54.999,-60.187 54.999,-63.5 C54.999,-66.813 52.311,-69.5 48.999,-69.5z M48.999,-61.5 C47.896,-61.5 46.999,-62.397 46.999,-63.5 C46.999,-64.603 47.896,-65.5 48.999,-65.5 C50.102000000000004,-65.5 50.999,-64.603 50.999,-63.5 C50.999,-62.397 50.102000000000004,-61.5 48.999,-61.5z M-157.001,44.499 C-161.419,44.499 -165.001,48.081 -165.001,52.499 C-165.001,56.917 -161.419,60.499 -157.001,60.499 C-152.583,60.499 -149.001,56.917 -149.001,52.499 C-149.001,48.081 -152.583,44.499 -157.001,44.499z M-157.001,56.499 C-159.207,56.499 -161.001,54.705000000000005 -161.001,52.499 C-161.001,50.293 -159.207,48.499 -157.001,48.499 C-154.79500000000002,48.499 -153.001,50.293 -153.001,52.499 C-153.001,54.705000000000005 -154.79500000000002,56.499 -157.001,56.499z M-199.001,74.499 C-202.314,74.499 -205.001,77.18599999999999 -205.001,80.499 C-205.001,83.81099999999999 -202.314,86.499 -199.001,86.499 C-195.68800000000002,86.499 -193.001,83.81099999999999 -193.001,80.499 C-193.001,77.18599999999999 -195.68800000000002,74.499 -199.001,74.499z M-199.001,82.499 C-200.104,82.499 -201.001,81.60199999999999 -201.001,80.499 C-201.001,79.396 -200.104,78.499 -199.001,78.499 C-197.898,78.499 -197.001,79.396 -197.001,80.499 C-197.001,81.60199999999999 -197.898,82.499 -199.001,82.499z"></path></g></g><g transform="matrix(4,0,0,4,2075,577)" opacity="1" style="user-select: none;"><g opacity="1" transform="matrix(1,0,0,1,218.338,108.499)"><path fill="rgb(255,173,76)" fill-opacity="1" d=" M122.663,54.5 C119.35,54.5 116.663,57.187 116.663,60.5 C116.663,63.813 119.35,66.5 122.663,66.5 C125.975,66.5 128.663,63.813 128.663,60.5 C128.663,57.187 125.975,54.5 122.663,54.5z M122.663,62.5 C121.56,62.5 120.663,61.603 120.663,60.5 C120.663,59.398 121.56,58.5 122.663,58.5 C123.765,58.5 124.663,59.398 124.663,60.5 C124.663,61.603 123.765,62.5 122.663,62.5z M-124.559,54.605 C-126.161,54.175999999999995 -127.805,55.126 -128.233,56.726 C-128.662,58.326 -127.712,59.971000000000004 -126.111,60.401 C-124.51100000000001,60.829 -122.866,59.879000000000005 -122.437,58.279 C-122.008,56.678000000000004 -122.958,55.032999999999994 -124.559,54.605z M-79.337,-66.5 C-82.65,-66.5 -85.337,-63.813 -85.337,-60.5 C-85.337,-57.187 -82.65,-54.5 -79.337,-54.5 C-76.024,-54.5 -73.337,-57.187 -73.337,-60.5 C-73.337,-63.813 -76.024,-66.5 -79.337,-66.5z M-79.337,-58.5 C-80.44,-58.5 -81.337,-59.397 -81.337,-60.5 C-81.337,-61.603 -80.44,-62.5 -79.337,-62.5 C-78.23400000000001,-62.5 -77.337,-61.603 -77.337,-60.5 C-77.337,-59.397 -78.23400000000001,-58.5 -79.337,-58.5z M86.233,-41.659 C84.259,-42.725 82.37299999999999,-43.32 80.547,-43.569 C80.218,-45.352000000000004 79.63600000000001,-47.183 78.733,-49.074 C78.60600000000001,-49.312 78.32900000000001,-49.502 78.135,-49.5 C77.947,-49.502 77.657,-49.309999999999995 77.508,-49.071 C76.454,-47.114 75.86200000000001,-45.241 75.611,-43.43 C73.703,-43.077 71.847,-42.416000000000004 70.02,-41.585 C69.825,-41.480000000000004 69.664,-41.227000000000004 69.663,-41.03 C69.66499999999999,-40.835 69.82000000000001,-40.561 70.009,-40.433 C71.845,-39.36 73.75699999999999,-38.694 75.746,-38.429 C76.09899999999999,-36.527 76.75699999999999,-34.678000000000004 77.585,-32.856 C77.69,-32.661 77.94200000000001,-32.5 78.137,-32.499 C78.333,-32.501000000000005 78.605,-32.657000000000004 78.733,-32.847 C79.809,-34.693 80.473,-36.616 80.736,-38.614 C82.518,-38.943999999999996 84.34599999999999,-39.528 86.237,-40.434 C86.47399999999999,-40.562 86.666,-40.838 86.664,-41.031 C86.665,-41.222 86.47200000000001,-41.512 86.233,-41.659z"></path></g></g><g transform="matrix(4,0,0,4,808.3815535337703,223.00442367446783)" opacity="1" style="user-select: none;"><g opacity="1" transform="matrix(1,0,0,1,205.001,86.499)"><path fill="rgb(221,209,198)" fill-opacity="1" d=" M76.777,22.605 C75.176,22.176000000000002 73.532,23.125999999999998 73.103,24.726 C72.67299999999999,26.326999999999998 73.62400000000001,27.971 75.224,28.4 C76.824,28.828999999999997 78.469,27.879 78.898,26.279 C79.327,24.679 78.378,23.033 76.777,22.605z M-67.223,59.604 C-68.824,59.176 -70.46900000000001,60.126 -70.897,61.726 C-71.325,63.326 -70.37599999999999,64.971 -68.776,65.4 C-67.175,65.82900000000001 -65.53,64.879 -65.102,63.279 C-64.672,61.678000000000004 -65.623,60.033 -67.223,59.604z M37.777,-86.395 C36.176,-86.825 34.532000000000004,-85.874 34.103,-84.274 C33.673,-82.673 34.623999999999995,-81.029 36.224,-80.6 C37.824,-80.17099999999999 39.469,-81.12100000000001 39.898,-82.721 C40.327000000000005,-84.321 39.378,-85.967 37.777,-86.395z M191.777,24.605 C190.176,24.176000000000002 188.532,25.125999999999998 188.103,26.726 C187.673,28.326999999999998 188.623,29.971 190.224,30.4 C191.825,30.828999999999997 193.469,29.879 193.898,28.279 C194.327,26.679 193.378,25.033 191.777,24.605z M135.777,-46.395 C134.176,-46.824000000000005 132.532,-45.874 132.103,-44.274 C131.673,-42.673 132.624,-41.029 134.224,-40.6 C135.82399999999998,-40.171 137.469,-41.120999999999995 137.898,-42.721 C138.327,-44.321 137.378,-45.967000000000006 135.777,-46.395z M202.777,-7.395 C201.176,-7.824 199.532,-6.8740000000000006 199.103,-5.274 C198.673,-3.673 199.624,-2.029 201.224,-1.6 C202.82399999999998,-1.171 204.469,-2.121 204.898,-3.721 C205.327,-5.321 204.378,-6.967 202.777,-7.395z M-86.43,31.341 C-88.403,30.275000000000002 -90.29,29.68 -92.114,29.431 C-92.443,27.648 -93.02600000000001,25.817 -93.93,23.926 C-94.058,23.688 -94.334,23.498 -94.526,23.5 C-94.716,23.498 -95.005,23.689999999999998 -95.152,23.929 C-96.20700000000001,25.886 -96.801,27.759 -97.052,29.57 C-98.96000000000001,29.923000000000002 -100.815,30.584 -102.643,31.415 C-102.839,31.52 -102.999,31.773 -103,31.97 C-102.998,32.165 -102.842,32.439 -102.653,32.567 C-100.81700000000001,33.64 -98.904,34.306 -96.916,34.571 C-96.563,36.473 -95.90599999999999,38.322 -95.079,40.143 C-94.97399999999999,40.339 -94.72099999999999,40.5 -94.526,40.501 C-94.331,40.498999999999995 -94.058,40.342999999999996 -93.93,40.153 C-92.855,38.307 -92.19,36.384 -91.929,34.386 C-90.147,34.056000000000004 -88.31700000000001,33.472 -86.426,32.566 C-86.18900000000001,32.437000000000005 -85.99900000000001,32.162 -86.001,31.969 C-85.99900000000001,31.778000000000002 -86.191,31.488 -86.43,31.341z M189.999,5.5 C189.999,2.187 187.311,-0.5 183.999,-0.5 C180.686,-0.5 177.999,2.187 177.999,5.5 C177.999,8.813 180.686,11.5 183.999,11.5 C187.311,11.5 189.999,8.814 189.999,5.5z M183.999,7.5 C182.896,7.5 181.999,6.603 181.999,5.5 C181.999,4.397 182.896,3.5 183.999,3.5 C185.102,3.5 185.999,4.397 185.999,5.5 C185.999,6.603 185.102,7.5 183.999,7.5z M48.999,-69.5 C45.686,-69.5 42.999,-66.813 42.999,-63.5 C42.999,-60.187 45.686,-57.5 48.999,-57.5 C52.311,-57.5 54.999,-60.187 54.999,-63.5 C54.999,-66.813 52.311,-69.5 48.999,-69.5z M48.999,-61.5 C47.896,-61.5 46.999,-62.397 46.999,-63.5 C46.999,-64.603 47.896,-65.5 48.999,-65.5 C50.102000000000004,-65.5 50.999,-64.603 50.999,-63.5 C50.999,-62.397 50.102000000000004,-61.5 48.999,-61.5z M-157.001,44.499 C-161.419,44.499 -165.001,48.081 -165.001,52.499 C-165.001,56.917 -161.419,60.499 -157.001,60.499 C-152.583,60.499 -149.001,56.917 -149.001,52.499 C-149.001,48.081 -152.583,44.499 -157.001,44.499z M-157.001,56.499 C-159.207,56.499 -161.001,54.705000000000005 -161.001,52.499 C-161.001,50.293 -159.207,48.499 -157.001,48.499 C-154.79500000000002,48.499 -153.001,50.293 -153.001,52.499 C-153.001,54.705000000000005 -154.79500000000002,56.499 -157.001,56.499z M-199.001,74.499 C-202.314,74.499 -205.001,77.18599999999999 -205.001,80.499 C-205.001,83.81099999999999 -202.314,86.499 -199.001,86.499 C-195.68800000000002,86.499 -193.001,83.81099999999999 -193.001,80.499 C-193.001,77.18599999999999 -195.68800000000002,74.499 -199.001,74.499z M-199.001,82.499 C-200.104,82.499 -201.001,81.60199999999999 -201.001,80.499 C-201.001,79.396 -200.104,78.499 -199.001,78.499 C-197.898,78.499 -197.001,79.396 -197.001,80.499 C-197.001,81.60199999999999 -197.898,82.499 -199.001,82.499z"></path></g></g><g transform="matrix(4,0,0,4,900.3101603373761,271.0003668225886)" opacity="1" style="user-select: none;"><g opacity="1" transform="matrix(1,0,0,1,218.338,108.499)"><path fill="rgb(255,173,76)" fill-opacity="1" d=" M122.663,54.5 C119.35,54.5 116.663,57.187 116.663,60.5 C116.663,63.813 119.35,66.5 122.663,66.5 C125.975,66.5 128.663,63.813 128.663,60.5 C128.663,57.187 125.975,54.5 122.663,54.5z M122.663,62.5 C121.56,62.5 120.663,61.603 120.663,60.5 C120.663,59.398 121.56,58.5 122.663,58.5 C123.765,58.5 124.663,59.398 124.663,60.5 C124.663,61.603 123.765,62.5 122.663,62.5z M-124.559,54.605 C-126.161,54.175999999999995 -127.805,55.126 -128.233,56.726 C-128.662,58.326 -127.712,59.971000000000004 -126.111,60.401 C-124.51100000000001,60.829 -122.866,59.879000000000005 -122.437,58.279 C-122.008,56.678000000000004 -122.958,55.032999999999994 -124.559,54.605z M-79.337,-66.5 C-82.65,-66.5 -85.337,-63.813 -85.337,-60.5 C-85.337,-57.187 -82.65,-54.5 -79.337,-54.5 C-76.024,-54.5 -73.337,-57.187 -73.337,-60.5 C-73.337,-63.813 -76.024,-66.5 -79.337,-66.5z M-79.337,-58.5 C-80.44,-58.5 -81.337,-59.397 -81.337,-60.5 C-81.337,-61.603 -80.44,-62.5 -79.337,-62.5 C-78.23400000000001,-62.5 -77.337,-61.603 -77.337,-60.5 C-77.337,-59.397 -78.23400000000001,-58.5 -79.337,-58.5z M86.233,-41.659 C84.259,-42.725 82.37299999999999,-43.32 80.547,-43.569 C80.218,-45.352000000000004 79.63600000000001,-47.183 78.733,-49.074 C78.60600000000001,-49.312 78.32900000000001,-49.502 78.135,-49.5 C77.947,-49.502 77.657,-49.309999999999995 77.508,-49.071 C76.454,-47.114 75.86200000000001,-45.241 75.611,-43.43 C73.703,-43.077 71.847,-42.416000000000004 70.02,-41.585 C69.825,-41.480000000000004 69.664,-41.227000000000004 69.663,-41.03 C69.66499999999999,-40.835 69.82000000000001,-40.561 70.009,-40.433 C71.845,-39.36 73.75699999999999,-38.694 75.746,-38.429 C76.09899999999999,-36.527 76.75699999999999,-34.678000000000004 77.585,-32.856 C77.69,-32.661 77.94200000000001,-32.5 78.137,-32.499 C78.333,-32.501000000000005 78.605,-32.657000000000004 78.733,-32.847 C79.809,-34.693 80.473,-36.616 80.736,-38.614 C82.518,-38.943999999999996 84.34599999999999,-39.528 86.237,-40.434 C86.47399999999999,-40.562 86.666,-40.838 86.664,-41.031 C86.665,-41.222 86.47200000000001,-41.512 86.233,-41.659z"></path></g></g><g transform="matrix(4,0,0,4,-350.37004749087833,-41.73248140651742)" opacity="1" style="user-select: none;"><g opacity="1" transform="matrix(1,0,0,1,205.001,86.499)"><path fill="rgb(221,209,198)" fill-opacity="1" d=" M76.777,22.605 C75.176,22.176000000000002 73.532,23.125999999999998 73.103,24.726 C72.67299999999999,26.326999999999998 73.62400000000001,27.971 75.224,28.4 C76.824,28.828999999999997 78.469,27.879 78.898,26.279 C79.327,24.679 78.378,23.033 76.777,22.605z M-67.223,59.604 C-68.824,59.176 -70.46900000000001,60.126 -70.897,61.726 C-71.325,63.326 -70.37599999999999,64.971 -68.776,65.4 C-67.175,65.82900000000001 -65.53,64.879 -65.102,63.279 C-64.672,61.678000000000004 -65.623,60.033 -67.223,59.604z M37.777,-86.395 C36.176,-86.825 34.532000000000004,-85.874 34.103,-84.274 C33.673,-82.673 34.623999999999995,-81.029 36.224,-80.6 C37.824,-80.17099999999999 39.469,-81.12100000000001 39.898,-82.721 C40.327000000000005,-84.321 39.378,-85.967 37.777,-86.395z M191.777,24.605 C190.176,24.176000000000002 188.532,25.125999999999998 188.103,26.726 C187.673,28.326999999999998 188.623,29.971 190.224,30.4 C191.825,30.828999999999997 193.469,29.879 193.898,28.279 C194.327,26.679 193.378,25.033 191.777,24.605z M135.777,-46.395 C134.176,-46.824000000000005 132.532,-45.874 132.103,-44.274 C131.673,-42.673 132.624,-41.029 134.224,-40.6 C135.82399999999998,-40.171 137.469,-41.120999999999995 137.898,-42.721 C138.327,-44.321 137.378,-45.967000000000006 135.777,-46.395z M202.777,-7.395 C201.176,-7.824 199.532,-6.8740000000000006 199.103,-5.274 C198.673,-3.673 199.624,-2.029 201.224,-1.6 C202.82399999999998,-1.171 204.469,-2.121 204.898,-3.721 C205.327,-5.321 204.378,-6.967 202.777,-7.395z M-86.43,31.341 C-88.403,30.275000000000002 -90.29,29.68 -92.114,29.431 C-92.443,27.648 -93.02600000000001,25.817 -93.93,23.926 C-94.058,23.688 -94.334,23.498 -94.526,23.5 C-94.716,23.498 -95.005,23.689999999999998 -95.152,23.929 C-96.20700000000001,25.886 -96.801,27.759 -97.052,29.57 C-98.96000000000001,29.923000000000002 -100.815,30.584 -102.643,31.415 C-102.839,31.52 -102.999,31.773 -103,31.97 C-102.998,32.165 -102.842,32.439 -102.653,32.567 C-100.81700000000001,33.64 -98.904,34.306 -96.916,34.571 C-96.563,36.473 -95.90599999999999,38.322 -95.079,40.143 C-94.97399999999999,40.339 -94.72099999999999,40.5 -94.526,40.501 C-94.331,40.498999999999995 -94.058,40.342999999999996 -93.93,40.153 C-92.855,38.307 -92.19,36.384 -91.929,34.386 C-90.147,34.056000000000004 -88.31700000000001,33.472 -86.426,32.566 C-86.18900000000001,32.437000000000005 -85.99900000000001,32.162 -86.001,31.969 C-85.99900000000001,31.778000000000002 -86.191,31.488 -86.43,31.341z M189.999,5.5 C189.999,2.187 187.311,-0.5 183.999,-0.5 C180.686,-0.5 177.999,2.187 177.999,5.5 C177.999,8.813 180.686,11.5 183.999,11.5 C187.311,11.5 189.999,8.814 189.999,5.5z M183.999,7.5 C182.896,7.5 181.999,6.603 181.999,5.5 C181.999,4.397 182.896,3.5 183.999,3.5 C185.102,3.5 185.999,4.397 185.999,5.5 C185.999,6.603 185.102,7.5 183.999,7.5z M48.999,-69.5 C45.686,-69.5 42.999,-66.813 42.999,-63.5 C42.999,-60.187 45.686,-57.5 48.999,-57.5 C52.311,-57.5 54.999,-60.187 54.999,-63.5 C54.999,-66.813 52.311,-69.5 48.999,-69.5z M48.999,-61.5 C47.896,-61.5 46.999,-62.397 46.999,-63.5 C46.999,-64.603 47.896,-65.5 48.999,-65.5 C50.102000000000004,-65.5 50.999,-64.603 50.999,-63.5 C50.999,-62.397 50.102000000000004,-61.5 48.999,-61.5z M-157.001,44.499 C-161.419,44.499 -165.001,48.081 -165.001,52.499 C-165.001,56.917 -161.419,60.499 -157.001,60.499 C-152.583,60.499 -149.001,56.917 -149.001,52.499 C-149.001,48.081 -152.583,44.499 -157.001,44.499z M-157.001,56.499 C-159.207,56.499 -161.001,54.705000000000005 -161.001,52.499 C-161.001,50.293 -159.207,48.499 -157.001,48.499 C-154.79500000000002,48.499 -153.001,50.293 -153.001,52.499 C-153.001,54.705000000000005 -154.79500000000002,56.499 -157.001,56.499z M-199.001,74.499 C-202.314,74.499 -205.001,77.18599999999999 -205.001,80.499 C-205.001,83.81099999999999 -202.314,86.499 -199.001,86.499 C-195.68800000000002,86.499 -193.001,83.81099999999999 -193.001,80.499 C-193.001,77.18599999999999 -195.68800000000002,74.499 -199.001,74.499z M-199.001,82.499 C-200.104,82.499 -201.001,81.60199999999999 -201.001,80.499 C-201.001,79.396 -200.104,78.499 -199.001,78.499 C-197.898,78.499 -197.001,79.396 -197.001,80.499 C-197.001,81.60199999999999 -197.898,82.499 -199.001,82.499z"></path></g></g><g transform="matrix(4,0,0,4,-502.3275467753033,-95.37447102799916)" opacity="1" style="user-select: none;"><g opacity="1" transform="matrix(1,0,0,1,218.338,108.499)"><path fill="rgb(255,173,76)" fill-opacity="1" d=" M122.663,54.5 C119.35,54.5 116.663,57.187 116.663,60.5 C116.663,63.813 119.35,66.5 122.663,66.5 C125.975,66.5 128.663,63.813 128.663,60.5 C128.663,57.187 125.975,54.5 122.663,54.5z M122.663,62.5 C121.56,62.5 120.663,61.603 120.663,60.5 C120.663,59.398 121.56,58.5 122.663,58.5 C123.765,58.5 124.663,59.398 124.663,60.5 C124.663,61.603 123.765,62.5 122.663,62.5z M-124.559,54.605 C-126.161,54.175999999999995 -127.805,55.126 -128.233,56.726 C-128.662,58.326 -127.712,59.971000000000004 -126.111,60.401 C-124.51100000000001,60.829 -122.866,59.879000000000005 -122.437,58.279 C-122.008,56.678000000000004 -122.958,55.032999999999994 -124.559,54.605z M-79.337,-66.5 C-82.65,-66.5 -85.337,-63.813 -85.337,-60.5 C-85.337,-57.187 -82.65,-54.5 -79.337,-54.5 C-76.024,-54.5 -73.337,-57.187 -73.337,-60.5 C-73.337,-63.813 -76.024,-66.5 -79.337,-66.5z M-79.337,-58.5 C-80.44,-58.5 -81.337,-59.397 -81.337,-60.5 C-81.337,-61.603 -80.44,-62.5 -79.337,-62.5 C-78.23400000000001,-62.5 -77.337,-61.603 -77.337,-60.5 C-77.337,-59.397 -78.23400000000001,-58.5 -79.337,-58.5z M86.233,-41.659 C84.259,-42.725 82.37299999999999,-43.32 80.547,-43.569 C80.218,-45.352000000000004 79.63600000000001,-47.183 78.733,-49.074 C78.60600000000001,-49.312 78.32900000000001,-49.502 78.135,-49.5 C77.947,-49.502 77.657,-49.309999999999995 77.508,-49.071 C76.454,-47.114 75.86200000000001,-45.241 75.611,-43.43 C73.703,-43.077 71.847,-42.416000000000004 70.02,-41.585 C69.825,-41.480000000000004 69.664,-41.227000000000004 69.663,-41.03 C69.66499999999999,-40.835 69.82000000000001,-40.561 70.009,-40.433 C71.845,-39.36 73.75699999999999,-38.694 75.746,-38.429 C76.09899999999999,-36.527 76.75699999999999,-34.678000000000004 77.585,-32.856 C77.69,-32.661 77.94200000000001,-32.5 78.137,-32.499 C78.333,-32.501000000000005 78.605,-32.657000000000004 78.733,-32.847 C79.809,-34.693 80.473,-36.616 80.736,-38.614 C82.518,-38.943999999999996 84.34599999999999,-39.528 86.237,-40.434 C86.47399999999999,-40.562 86.666,-40.838 86.664,-41.031 C86.665,-41.222 86.47200000000001,-41.512 86.233,-41.659z"></path></g></g><g transform="matrix(4,0,0,4,-1509.0789372818213,-306.6559982473725)" opacity="1" style="user-select: none; display: block;"><g opacity="1" transform="matrix(1,0,0,1,205.001,86.499)"><path fill="rgb(221,209,198)" fill-opacity="1" d=" M76.777,22.605 C75.176,22.176000000000002 73.532,23.125999999999998 73.103,24.726 C72.67299999999999,26.326999999999998 73.62400000000001,27.971 75.224,28.4 C76.824,28.828999999999997 78.469,27.879 78.898,26.279 C79.327,24.679 78.378,23.033 76.777,22.605z M-67.223,59.604 C-68.824,59.176 -70.46900000000001,60.126 -70.897,61.726 C-71.325,63.326 -70.37599999999999,64.971 -68.776,65.4 C-67.175,65.82900000000001 -65.53,64.879 -65.102,63.279 C-64.672,61.678000000000004 -65.623,60.033 -67.223,59.604z M37.777,-86.395 C36.176,-86.825 34.532000000000004,-85.874 34.103,-84.274 C33.673,-82.673 34.623999999999995,-81.029 36.224,-80.6 C37.824,-80.17099999999999 39.469,-81.12100000000001 39.898,-82.721 C40.327000000000005,-84.321 39.378,-85.967 37.777,-86.395z M191.777,24.605 C190.176,24.176000000000002 188.532,25.125999999999998 188.103,26.726 C187.673,28.326999999999998 188.623,29.971 190.224,30.4 C191.825,30.828999999999997 193.469,29.879 193.898,28.279 C194.327,26.679 193.378,25.033 191.777,24.605z M135.777,-46.395 C134.176,-46.824000000000005 132.532,-45.874 132.103,-44.274 C131.673,-42.673 132.624,-41.029 134.224,-40.6 C135.82399999999998,-40.171 137.469,-41.120999999999995 137.898,-42.721 C138.327,-44.321 137.378,-45.967000000000006 135.777,-46.395z M202.777,-7.395 C201.176,-7.824 199.532,-6.8740000000000006 199.103,-5.274 C198.673,-3.673 199.624,-2.029 201.224,-1.6 C202.82399999999998,-1.171 204.469,-2.121 204.898,-3.721 C205.327,-5.321 204.378,-6.967 202.777,-7.395z M-86.43,31.341 C-88.403,30.275000000000002 -90.29,29.68 -92.114,29.431 C-92.443,27.648 -93.02600000000001,25.817 -93.93,23.926 C-94.058,23.688 -94.334,23.498 -94.526,23.5 C-94.716,23.498 -95.005,23.689999999999998 -95.152,23.929 C-96.20700000000001,25.886 -96.801,27.759 -97.052,29.57 C-98.96000000000001,29.923000000000002 -100.815,30.584 -102.643,31.415 C-102.839,31.52 -102.999,31.773 -103,31.97 C-102.998,32.165 -102.842,32.439 -102.653,32.567 C-100.81700000000001,33.64 -98.904,34.306 -96.916,34.571 C-96.563,36.473 -95.90599999999999,38.322 -95.079,40.143 C-94.97399999999999,40.339 -94.72099999999999,40.5 -94.526,40.501 C-94.331,40.498999999999995 -94.058,40.342999999999996 -93.93,40.153 C-92.855,38.307 -92.19,36.384 -91.929,34.386 C-90.147,34.056000000000004 -88.31700000000001,33.472 -86.426,32.566 C-86.18900000000001,32.437000000000005 -85.99900000000001,32.162 -86.001,31.969 C-85.99900000000001,31.778000000000002 -86.191,31.488 -86.43,31.341z M189.999,5.5 C189.999,2.187 187.311,-0.5 183.999,-0.5 C180.686,-0.5 177.999,2.187 177.999,5.5 C177.999,8.813 180.686,11.5 183.999,11.5 C187.311,11.5 189.999,8.814 189.999,5.5z M183.999,7.5 C182.896,7.5 181.999,6.603 181.999,5.5 C181.999,4.397 182.896,3.5 183.999,3.5 C185.102,3.5 185.999,4.397 185.999,5.5 C185.999,6.603 185.102,7.5 183.999,7.5z M48.999,-69.5 C45.686,-69.5 42.999,-66.813 42.999,-63.5 C42.999,-60.187 45.686,-57.5 48.999,-57.5 C52.311,-57.5 54.999,-60.187 54.999,-63.5 C54.999,-66.813 52.311,-69.5 48.999,-69.5z M48.999,-61.5 C47.896,-61.5 46.999,-62.397 46.999,-63.5 C46.999,-64.603 47.896,-65.5 48.999,-65.5 C50.102000000000004,-65.5 50.999,-64.603 50.999,-63.5 C50.999,-62.397 50.102000000000004,-61.5 48.999,-61.5z M-157.001,44.499 C-161.419,44.499 -165.001,48.081 -165.001,52.499 C-165.001,56.917 -161.419,60.499 -157.001,60.499 C-152.583,60.499 -149.001,56.917 -149.001,52.499 C-149.001,48.081 -152.583,44.499 -157.001,44.499z M-157.001,56.499 C-159.207,56.499 -161.001,54.705000000000005 -161.001,52.499 C-161.001,50.293 -159.207,48.499 -157.001,48.499 C-154.79500000000002,48.499 -153.001,50.293 -153.001,52.499 C-153.001,54.705000000000005 -154.79500000000002,56.499 -157.001,56.499z M-199.001,74.499 C-202.314,74.499 -205.001,77.18599999999999 -205.001,80.499 C-205.001,83.81099999999999 -202.314,86.499 -199.001,86.499 C-195.68800000000002,86.499 -193.001,83.81099999999999 -193.001,80.499 C-193.001,77.18599999999999 -195.68800000000002,74.499 -199.001,74.499z M-199.001,82.499 C-200.104,82.499 -201.001,81.60199999999999 -201.001,80.499 C-201.001,79.396 -200.104,78.499 -199.001,78.499 C-197.898,78.499 -197.001,79.396 -197.001,80.499 C-197.001,81.60199999999999 -197.898,82.499 -199.001,82.499z" style="display: block;"></path></g></g><g transform="matrix(4,0,0,4,-1905.1743879378407,-460.9461948637598)" opacity="1" style="user-select: none; display: block;"><g opacity="1" transform="matrix(1,0,0,1,218.338,108.499)"><path fill="rgb(255,173,76)" fill-opacity="1" d=" M122.663,54.5 C119.35,54.5 116.663,57.187 116.663,60.5 C116.663,63.813 119.35,66.5 122.663,66.5 C125.975,66.5 128.663,63.813 128.663,60.5 C128.663,57.187 125.975,54.5 122.663,54.5z M122.663,62.5 C121.56,62.5 120.663,61.603 120.663,60.5 C120.663,59.398 121.56,58.5 122.663,58.5 C123.765,58.5 124.663,59.398 124.663,60.5 C124.663,61.603 123.765,62.5 122.663,62.5z M-124.559,54.605 C-126.161,54.175999999999995 -127.805,55.126 -128.233,56.726 C-128.662,58.326 -127.712,59.971000000000004 -126.111,60.401 C-124.51100000000001,60.829 -122.866,59.879000000000005 -122.437,58.279 C-122.008,56.678000000000004 -122.958,55.032999999999994 -124.559,54.605z M-79.337,-66.5 C-82.65,-66.5 -85.337,-63.813 -85.337,-60.5 C-85.337,-57.187 -82.65,-54.5 -79.337,-54.5 C-76.024,-54.5 -73.337,-57.187 -73.337,-60.5 C-73.337,-63.813 -76.024,-66.5 -79.337,-66.5z M-79.337,-58.5 C-80.44,-58.5 -81.337,-59.397 -81.337,-60.5 C-81.337,-61.603 -80.44,-62.5 -79.337,-62.5 C-78.23400000000001,-62.5 -77.337,-61.603 -77.337,-60.5 C-77.337,-59.397 -78.23400000000001,-58.5 -79.337,-58.5z M86.233,-41.659 C84.259,-42.725 82.37299999999999,-43.32 80.547,-43.569 C80.218,-45.352000000000004 79.63600000000001,-47.183 78.733,-49.074 C78.60600000000001,-49.312 78.32900000000001,-49.502 78.135,-49.5 C77.947,-49.502 77.657,-49.309999999999995 77.508,-49.071 C76.454,-47.114 75.86200000000001,-45.241 75.611,-43.43 C73.703,-43.077 71.847,-42.416000000000004 70.02,-41.585 C69.825,-41.480000000000004 69.664,-41.227000000000004 69.663,-41.03 C69.66499999999999,-40.835 69.82000000000001,-40.561 70.009,-40.433 C71.845,-39.36 73.75699999999999,-38.694 75.746,-38.429 C76.09899999999999,-36.527 76.75699999999999,-34.678000000000004 77.585,-32.856 C77.69,-32.661 77.94200000000001,-32.5 78.137,-32.499 C78.333,-32.501000000000005 78.605,-32.657000000000004 78.733,-32.847 C79.809,-34.693 80.473,-36.616 80.736,-38.614 C82.518,-38.943999999999996 84.34599999999999,-39.528 86.237,-40.434 C86.47399999999999,-40.562 86.666,-40.838 86.664,-41.031 C86.665,-41.222 86.47200000000001,-41.512 86.233,-41.659z" style="display: block;"></path></g></g></g><g transform="matrix(4,0,0,4,-542,643)" opacity="1" style="user-select: none;"><g opacity="1" transform="matrix(1,0,0,1,67.502,60.999)"><path fill="rgb(219,209,198)" fill-opacity="1" d=" M-28.753,27.118 C-25.83,30.445 -21.602,32.352 -17.154,32.352 C-13.432,32.352 -9.839,31.011 -7.033,28.576 C-0.8660000000000005,23.224 -2.115,6.144 -2.277,4.214 C-2.277,4.214 -2.392,2.86 -2.392,2.86 C-2.392,2.86 -3.744,2.658 -3.744,2.658 C-3.9170000000000003,2.632 -8.044,2.022 -12.943,2.022 C-19.779,2.022 -24.604000000000003,3.2020000000000004 -27.286,5.53 C-30.383000000000003,8.218 -32.243,11.944999999999999 -32.52,16.022 C-32.797000000000004,20.099999999999998 -31.46,24.040999999999997 -28.753,27.118z M-17.154,28.915 C-18.403,28.915 -19.629,28.715 -20.794,28.345 C-20.899,27.747999999999998 -20.894000000000002,27.139000000000003 -20.777,26.53 C-20.522000000000002,25.199 -19.762,24.048000000000002 -18.634,23.285 C-17.507,22.523 -16.151,22.243 -14.811,22.496 C-12.533999999999999,22.927999999999997 -10.888,24.788999999999998 -10.686,27.005 C-12.606,28.238999999999997 -14.844999999999999,28.915 -17.154,28.915z M-29.068,16.254 C-28.854000000000003,13.094000000000001 -27.412000000000003,10.203999999999999 -25.01,8.12 C-23.034000000000002,6.404999999999999 -18.749,5.46 -12.943,5.46 C-9.943,5.46 -7.2,5.709 -5.63,5.885 C-5.373,10.632 -5.495,19.573 -7.902,24.105 C-8.991,21.591 -11.272,19.665999999999997 -14.162,19.118 C-16.407,18.692999999999998 -18.687,19.163 -20.579,20.441 C-22.47,21.718999999999998 -23.747,23.653000000000002 -24.175,25.885 C-24.219,26.115000000000002 -24.239,26.349 -24.264,26.582 C-24.947,26.080000000000002 -25.578999999999997,25.502 -26.147,24.855 C-28.246,22.471 -29.283,19.416 -29.068,16.254z M-21.014,17.821 C-20.442999999999998,18.004 -19.849999999999998,18.097 -19.255,18.097 C-19.255,18.097 -19.255,18.097 -19.255,18.097 C-16.769,18.097 -14.584,16.515 -13.818,14.161 C-13.349,12.718 -13.473,11.178999999999998 -14.169,9.828 C-14.865,8.477 -16.048000000000002,7.476 -17.501,7.011 C-18.071,6.828 -18.662000000000003,6.736 -19.257,6.736 C-21.745,6.736 -23.929000000000002,8.317 -24.695,10.671 C-25.164,12.113999999999999 -25.039,13.653 -24.344,15.003 C-23.648,16.354 -22.466,17.355 -21.014,17.821z M-21.402,11.728 C-21.101000000000003,10.798 -20.239,10.174 -19.257,10.174 C-19.023,10.174 -18.789,10.211 -18.562,10.283 C-17.988,10.468 -17.523,10.862 -17.249,11.395 C-16.974999999999998,11.927999999999999 -16.926000000000002,12.535 -17.111,13.105 C-17.485,14.256 -18.777,14.926 -19.951,14.548 C-20.523,14.364 -20.99,13.969999999999999 -21.264,13.437 C-21.538,12.905 -21.587,12.298 -21.402,11.728z M-17.145,36.563 C-22.462,36.563 -27.461,34.505 -31.221,30.768 C-34.981,27.032 -37.051,22.064 -37.051,16.78 C-37.051,11.496000000000002 -34.981,6.527 -31.221,2.791 C-31.221,2.791 -33.667,0.359 -33.667,0.359 C-38.081,4.7459999999999996 -40.51,10.577000000000002 -40.51,16.78 C-40.51,22.982 -38.081,28.814000000000004 -33.667,33.2 C-29.253,37.585 -23.386,40.001 -17.145,40.001 C-10.902999999999999,40.001 -5.035,37.585 -0.622,33.199 C-0.622,33.199 -3.068,30.767 -3.068,30.767 C-6.827999999999999,34.505 -11.827,36.563 -17.145,36.563z M16.98,-37.349 C16.98,-37.349 14.778,-40.001 14.778,-40.001 C14.778,-40.001 -27.324,-5.455 -27.324,-5.455 C-27.324,-5.455 -25.12,-2.804 -25.12,-2.804 C-25.12,-2.804 16.98,-37.349 16.98,-37.349z M-2.4,-10.971 C-2.4,-10.971 28.368,-36.218 28.368,-36.218 C28.368,-36.218 26.165,-38.869 26.165,-38.869 C26.165,-38.869 -4.604,-13.622 -4.604,-13.622 C-4.604,-13.622 -2.4,-10.971 -2.4,-10.971z M-11.66,-3.375 C-11.66,-3.375 -6.242,-7.818 -6.242,-7.818 C-6.242,-7.818 -8.445,-10.47 -8.445,-10.47 C-8.445,-10.47 -13.863,-6.026 -13.863,-6.026 C-13.863,-6.026 -11.66,-3.375 -11.66,-3.375z M-4.928,-2.814 C-4.928,-2.814 -2.726,-0.163 -2.726,-0.163 C-2.726,-0.163 10.781,-11.244 10.781,-11.244 C10.781,-11.244 8.577,-13.896 8.577,-13.896 C8.577,-13.896 -4.928,-2.814 -4.928,-2.814z M2.528,6.187 C2.528,6.187 32.042,-18.03 32.042,-18.03 C32.042,-18.03 29.839,-20.681 29.839,-20.681 C29.839,-20.681 0.325,3.534 0.325,3.534 C0.325,3.534 2.528,6.187 2.528,6.187z M38.316,-16.238 C38.316,-16.238 22.779,-3.572 22.779,-3.572 C22.779,-3.572 24.973,-0.914 24.973,-0.914 C24.973,-0.914 40.51,-13.58 40.51,-13.58 C40.51,-13.58 38.316,-16.238 38.316,-16.238z M5.658,14.936 C5.658,14.936 20.497,2.759 20.497,2.759 C20.497,2.759 18.295,0.108 18.295,0.108 C18.295,0.108 3.454,12.285 3.454,12.285 C3.454,12.285 5.658,14.936 5.658,14.936z M-0.464,28.142 C-0.464,28.142 1.857,30.691 1.857,30.691 C1.857,30.691 21.785,12.772 21.785,12.772 C21.785,12.772 19.464,10.223 19.464,10.223 C19.464,10.223 -0.464,28.142 -0.464,28.142z M26.375,4.159 C26.375,4.159 28.577,6.811 28.577,6.811 C28.577,6.811 33.995,2.366 33.995,2.366 C33.995,2.366 31.792,-0.285 31.792,-0.285 C31.792,-0.285 26.375,4.159 26.375,4.159z"></path></g></g><g transform="matrix(4.004351834286416,0.0037959639748345615,-0.0037959639748345615,4.004351834286416,431.23206292450675,252.10573286844794)" opacity="1" style="user-select: none;"><g opacity="1" transform="matrix(1,0,0,1,332.32,111.252)"><path fill="rgb(219,209,198)" fill-opacity="1" d=" M-22.375,23.187 C-22.375,23.187 -17.937,18.748 -17.937,18.748 C-17.937,18.748 -23.374,13.31 -23.374,13.31 C-23.374,13.31 -22.375,23.187 -22.375,23.187z M-3.333,-4.934 C-4.98,-6.58 -6.9079999999999995,-6.397 -8.686,-4.621 C-10.539,-2.7670000000000003 -10.696,-0.863 -9.051,0.782 C-9.051,0.782 -3.459,6.373 -3.459,6.373 C-1.8150000000000002,8.02 0.11499999999999999,7.888 1.97,6.033 C3.746,4.257000000000001 3.902,2.302 2.258,0.656 C2.258,0.656 -3.333,-4.934 -3.333,-4.934z M12.98,-12.169 C12.98,-12.169 17.42,-16.608 17.42,-16.608 C17.42,-16.608 11.981,-22.046 11.981,-22.046 C11.981,-22.046 12.98,-12.169 12.98,-12.169z M30.511,-17.022 C30.511,-17.022 30.382,-17.15 30.382,-17.15 C31.435000000000002,-19.195 31.026,-21.484 29.16,-23.35 C29.16,-23.35 27.716,-24.793 27.716,-24.793 C25.851000000000003,-26.657999999999998 23.561,-27.066 21.517,-26.015 C21.517,-26.015 14.328,-33.205 14.328,-33.205 C11.945,-35.586 8.876,-35.593 6.505,-33.222 C6.505,-33.222 4.605,-31.323 4.605,-31.323 C3.035,-29.752 2.459,-28.108 2.68,-25.825 C2.68,-25.825 4.177,-11.492 4.177,-11.492 C4.177,-11.492 3.752,-11.916 3.752,-11.916 C-1.7850000000000001,-17.453 -9.471,-17.208 -15.37,-11.308 C-20.267,-6.411 -21.291,-0.3080000000000007 -18.389,4.789 C-18.389,4.789 -21.028,2.149 -21.028,2.149 C-23.409,-0.23199999999999976 -26.481,-0.23899999999999988 -28.852,2.132 C-28.852,2.132 -30.75,4.031 -30.75,4.031 C-32.321,5.601999999999999 -32.897999999999996,7.246 -32.675,9.529 C-32.675,9.529 -30.789,27.597 -30.789,27.597 C-30.642000000000003,29.596 -29.902,30.699 -28.686,31.916 C-28.686,31.916 -27.398,33.204 -27.398,33.204 C-25.016,35.586 -21.944,35.593 -19.573,33.222 C-19.573,33.222 -14.367,28.015 -14.367,28.015 C-11.997,30.317 -8.97,30.296000000000003 -6.625,27.952 C-6.625,27.952 -4.828,26.156 -4.828,26.156 C-2.4570000000000003,23.785 -2.463,20.714000000000002 -4.846,18.332 C-4.846,18.332 -4.974,18.204 -4.974,18.204 C-4.758,17.786 -4.619,17.355999999999998 -4.527,16.923 C-0.12199999999999989,18.11 4.671000000000001,16.703 8.656,12.719 C12.702000000000002,8.674 14.103,3.931 12.856,-0.465 C13.881,-0.68 14.881,-1.234 15.781,-2.133 C15.781,-2.133 20.987,-7.34 20.987,-7.34 C23.357,-5.038 26.386,-5.058999999999999 28.729,-7.403 C28.729,-7.403 30.526,-9.2 30.526,-9.2 C32.897999999999996,-11.568 32.891999999999996,-14.639999999999999 30.511,-17.022z M-7.691,23.294 C-7.691,23.294 -9.488,25.091 -9.488,25.091 C-10.283,25.886000000000003 -10.798,25.886 -11.597,25.086 C-11.597,25.086 -14.379,22.303 -14.379,22.303 C-14.379,22.303 -22.438,30.361 -22.438,30.361 C-23.232,31.156000000000002 -23.746000000000002,31.156 -24.545,30.357 C-24.545,30.357 -25.833,29.068 -25.833,29.068 C-26.555999999999997,28.346 -26.709,28.089000000000002 -26.764,27.265 C-26.764,27.265 -28.654,9.159 -28.654,9.159 C-28.758,8.078000000000001 -28.606,7.6160000000000005 -27.887,6.897 C-27.887,6.897 -25.988,4.998 -25.988,4.998 C-25.192999999999998,4.203 -24.679,4.204 -23.88,5.003 C-23.88,5.003 -14.035,14.848 -14.035,14.848 C-14.035,14.848 -12.599,13.411 -12.599,13.411 C-11.803,12.615 -11.288,12.616 -10.49,13.414 C-10.49,13.414 -9.047,14.858 -9.047,14.858 C-8.248000000000001,15.657 -8.247,16.171 -9.042,16.966 C-9.042,16.966 -10.481,18.403 -10.481,18.403 C-10.481,18.403 -7.697,21.186 -7.697,21.186 C-6.897,21.985 -6.897,22.499 -7.691,23.294z M5.8,9.864 C1.3709999999999996,14.294 -3.724,14.452 -7.708,10.468 C-7.708,10.468 -13.17,5.006 -13.17,5.006 C-17.104,1.0730000000000004 -16.944,-4.020999999999999 -12.516,-8.45 C-8.112,-12.852999999999998 -3.043,-12.986 0.889,-9.054 C0.889,-9.054 6.351,-3.592 6.351,-3.592 C10.362,0.41900000000000004 10.229,5.436000000000001 5.8,9.864z M27.664,-12.062 C27.664,-12.062 25.867,-10.265 25.867,-10.265 C25.071,-9.47 24.557000000000002,-9.47 23.759,-10.269 C23.759,-10.269 20.976,-13.052 20.976,-13.052 C20.976,-13.052 12.918,-4.995 12.918,-4.995 C12.123,-4.2 11.607000000000001,-4.199999999999999 10.81,-4.999 C10.81,-4.999 9.521,-6.288 9.521,-6.288 C8.8,-7.01 8.644,-7.2669999999999995 8.592,-8.091 C8.592,-8.091 6.701,-26.197 6.701,-26.197 C6.5969999999999995,-27.278 6.75,-27.74 7.468,-28.459 C7.468,-28.459 9.367,-30.357 9.367,-30.357 C10.162,-31.153 10.677,-31.152 11.475,-30.353 C11.475,-30.353 21.319,-20.508 21.319,-20.508 C21.319,-20.508 22.757,-21.945 22.757,-21.945 C23.553,-22.741 24.066,-22.74 24.863,-21.941 C24.863,-21.941 26.308,-20.498 26.308,-20.498 C27.106,-19.699 27.107,-19.185000000000002 26.311,-18.39 C26.311,-18.39 24.875,-16.953 24.875,-16.953 C24.875,-16.953 27.657,-14.17 27.657,-14.17 C28.458,-13.37 28.459000000000003,-12.856 27.664,-12.062z"></path></g></g><g></g><g></g><g transform="matrix(-0.0009515205684018225,-0.0004040117660054145,0.0004040117660054145,-0.0009515205684018225,787.806354670519,399.7261949561681)" opacity="0" style="user-select: none;"><g opacity="1" transform="matrix(1,0,0,1,332.32,111.252)"><path fill="rgb(255,255,255)" fill-opacity="1" d=" M-7.691,23.294 C-7.691,23.294 -9.488,25.091 -9.488,25.091 C-10.283,25.886000000000003 -10.798,25.886 -11.597,25.086 C-11.597,25.086 -14.379,22.303 -14.379,22.303 C-14.379,22.303 -22.438,30.361 -22.438,30.361 C-23.232,31.156000000000002 -23.746000000000002,31.156 -24.545,30.357 C-24.545,30.357 -25.833,29.068 -25.833,29.068 C-26.555999999999997,28.346 -26.709,28.089000000000002 -26.764,27.265 C-26.764,27.265 -28.654,9.159 -28.654,9.159 C-28.758,8.078000000000001 -28.606,7.6160000000000005 -27.887,6.897 C-27.887,6.897 -25.988,4.998 -25.988,4.998 C-25.192999999999998,4.203 -24.679,4.204 -23.88,5.003 C-23.88,5.003 -14.035,14.848 -14.035,14.848 C-14.035,14.848 -12.599,13.411 -12.599,13.411 C-11.803,12.615 -11.288,12.616 -10.49,13.414 C-10.49,13.414 -9.047,14.858 -9.047,14.858 C-8.248000000000001,15.657 -8.247,16.171 -9.042,16.966 C-9.042,16.966 -10.481,18.403 -10.481,18.403 C-10.481,18.403 -7.697,21.186 -7.697,21.186 C-6.897,21.985 -6.897,22.499 -7.691,23.294z M5.8,9.864 C1.3709999999999996,14.294 -3.724,14.452 -7.708,10.468 C-7.708,10.468 -13.17,5.006 -13.17,5.006 C-17.104,1.0730000000000004 -16.944,-4.020999999999999 -12.516,-8.45 C-8.112,-12.852999999999998 -3.043,-12.986 0.889,-9.054 C0.889,-9.054 6.351,-3.592 6.351,-3.592 C10.362,0.41900000000000004 10.229,5.436000000000001 5.8,9.864z M27.664,-12.062 C27.664,-12.062 25.867,-10.265 25.867,-10.265 C25.071,-9.47 24.557000000000002,-9.47 23.759,-10.269 C23.759,-10.269 20.976,-13.052 20.976,-13.052 C20.976,-13.052 12.918,-4.995 12.918,-4.995 C12.123,-4.2 11.607000000000001,-4.199999999999999 10.81,-4.999 C10.81,-4.999 9.521,-6.288 9.521,-6.288 C8.8,-7.01 8.644,-7.2669999999999995 8.592,-8.091 C8.592,-8.091 6.701,-26.197 6.701,-26.197 C6.5969999999999995,-27.278 6.75,-27.74 7.468,-28.459 C7.468,-28.459 9.367,-30.357 9.367,-30.357 C10.162,-31.153 10.677,-31.152 11.475,-30.353 C11.475,-30.353 21.319,-20.508 21.319,-20.508 C21.319,-20.508 22.757,-21.945 22.757,-21.945 C23.553,-22.741 24.066,-22.74 24.863,-21.941 C24.863,-21.941 26.308,-20.498 26.308,-20.498 C27.106,-19.699 27.107,-19.185000000000002 26.311,-18.39 C26.311,-18.39 24.875,-16.953 24.875,-16.953 C24.875,-16.953 27.657,-14.17 27.657,-14.17 C28.458,-13.37 28.459000000000003,-12.856 27.664,-12.062z"></path></g></g><g transform="matrix(-0.0009515205684018225,-0.0004040117660054145,0.0004040117660054145,-0.0009515205684018225,787.806354670519,399.7261949561681)" opacity="0" style="user-select: none;"><g opacity="1" transform="matrix(1,0,0,1,332.32,111.252)"><path fill="rgb(219,209,198)" fill-opacity="1" d=" M-22.375,23.187 C-22.375,23.187 -17.937,18.748 -17.937,18.748 C-17.937,18.748 -23.374,13.31 -23.374,13.31 C-23.374,13.31 -22.375,23.187 -22.375,23.187z M-3.333,-4.934 C-4.98,-6.58 -6.9079999999999995,-6.397 -8.686,-4.621 C-10.539,-2.7670000000000003 -10.696,-0.863 -9.051,0.782 C-9.051,0.782 -3.459,6.373 -3.459,6.373 C-1.8150000000000002,8.02 0.11499999999999999,7.888 1.97,6.033 C3.746,4.257000000000001 3.902,2.302 2.258,0.656 C2.258,0.656 -3.333,-4.934 -3.333,-4.934z M12.98,-12.169 C12.98,-12.169 17.42,-16.608 17.42,-16.608 C17.42,-16.608 11.981,-22.046 11.981,-22.046 C11.981,-22.046 12.98,-12.169 12.98,-12.169z M30.511,-17.022 C30.511,-17.022 30.382,-17.15 30.382,-17.15 C31.435000000000002,-19.195 31.026,-21.484 29.16,-23.35 C29.16,-23.35 27.716,-24.793 27.716,-24.793 C25.851000000000003,-26.657999999999998 23.561,-27.066 21.517,-26.015 C21.517,-26.015 14.328,-33.205 14.328,-33.205 C11.945,-35.586 8.876,-35.593 6.505,-33.222 C6.505,-33.222 4.605,-31.323 4.605,-31.323 C3.035,-29.752 2.459,-28.108 2.68,-25.825 C2.68,-25.825 4.177,-11.492 4.177,-11.492 C4.177,-11.492 3.752,-11.916 3.752,-11.916 C-1.7850000000000001,-17.453 -9.471,-17.208 -15.37,-11.308 C-20.267,-6.411 -21.291,-0.3080000000000007 -18.389,4.789 C-18.389,4.789 -21.028,2.149 -21.028,2.149 C-23.409,-0.23199999999999976 -26.481,-0.23899999999999988 -28.852,2.132 C-28.852,2.132 -30.75,4.031 -30.75,4.031 C-32.321,5.601999999999999 -32.897999999999996,7.246 -32.675,9.529 C-32.675,9.529 -30.789,27.597 -30.789,27.597 C-30.642000000000003,29.596 -29.902,30.699 -28.686,31.916 C-28.686,31.916 -27.398,33.204 -27.398,33.204 C-25.016,35.586 -21.944,35.593 -19.573,33.222 C-19.573,33.222 -14.367,28.015 -14.367,28.015 C-11.997,30.317 -8.97,30.296000000000003 -6.625,27.952 C-6.625,27.952 -4.828,26.156 -4.828,26.156 C-2.4570000000000003,23.785 -2.463,20.714000000000002 -4.846,18.332 C-4.846,18.332 -4.974,18.204 -4.974,18.204 C-4.758,17.786 -4.619,17.355999999999998 -4.527,16.923 C-0.12199999999999989,18.11 4.671000000000001,16.703 8.656,12.719 C12.702000000000002,8.674 14.103,3.931 12.856,-0.465 C13.881,-0.68 14.881,-1.234 15.781,-2.133 C15.781,-2.133 20.987,-7.34 20.987,-7.34 C23.357,-5.038 26.386,-5.058999999999999 28.729,-7.403 C28.729,-7.403 30.526,-9.2 30.526,-9.2 C32.897999999999996,-11.568 32.891999999999996,-14.639999999999999 30.511,-17.022z M-7.691,23.294 C-7.691,23.294 -9.488,25.091 -9.488,25.091 C-10.283,25.886000000000003 -10.798,25.886 -11.597,25.086 C-11.597,25.086 -14.379,22.303 -14.379,22.303 C-14.379,22.303 -22.438,30.361 -22.438,30.361 C-23.232,31.156000000000002 -23.746000000000002,31.156 -24.545,30.357 C-24.545,30.357 -25.833,29.068 -25.833,29.068 C-26.555999999999997,28.346 -26.709,28.089000000000002 -26.764,27.265 C-26.764,27.265 -28.654,9.159 -28.654,9.159 C-28.758,8.078000000000001 -28.606,7.6160000000000005 -27.887,6.897 C-27.887,6.897 -25.988,4.998 -25.988,4.998 C-25.192999999999998,4.203 -24.679,4.204 -23.88,5.003 C-23.88,5.003 -14.035,14.848 -14.035,14.848 C-14.035,14.848 -12.599,13.411 -12.599,13.411 C-11.803,12.615 -11.288,12.616 -10.49,13.414 C-10.49,13.414 -9.047,14.858 -9.047,14.858 C-8.248000000000001,15.657 -8.247,16.171 -9.042,16.966 C-9.042,16.966 -10.481,18.403 -10.481,18.403 C-10.481,18.403 -7.697,21.186 -7.697,21.186 C-6.897,21.985 -6.897,22.499 -7.691,23.294z M5.8,9.864 C1.3709999999999996,14.294 -3.724,14.452 -7.708,10.468 C-7.708,10.468 -13.17,5.006 -13.17,5.006 C-17.104,1.0730000000000004 -16.944,-4.020999999999999 -12.516,-8.45 C-8.112,-12.852999999999998 -3.043,-12.986 0.889,-9.054 C0.889,-9.054 6.351,-3.592 6.351,-3.592 C10.362,0.41900000000000004 10.229,5.436000000000001 5.8,9.864z M27.664,-12.062 C27.664,-12.062 25.867,-10.265 25.867,-10.265 C25.071,-9.47 24.557000000000002,-9.47 23.759,-10.269 C23.759,-10.269 20.976,-13.052 20.976,-13.052 C20.976,-13.052 12.918,-4.995 12.918,-4.995 C12.123,-4.2 11.607000000000001,-4.199999999999999 10.81,-4.999 C10.81,-4.999 9.521,-6.288 9.521,-6.288 C8.8,-7.01 8.644,-7.2669999999999995 8.592,-8.091 C8.592,-8.091 6.701,-26.197 6.701,-26.197 C6.5969999999999995,-27.278 6.75,-27.74 7.468,-28.459 C7.468,-28.459 9.367,-30.357 9.367,-30.357 C10.162,-31.153 10.677,-31.152 11.475,-30.353 C11.475,-30.353 21.319,-20.508 21.319,-20.508 C21.319,-20.508 22.757,-21.945 22.757,-21.945 C23.553,-22.741 24.066,-22.74 24.863,-21.941 C24.863,-21.941 26.308,-20.498 26.308,-20.498 C27.106,-19.699 27.107,-19.185000000000002 26.311,-18.39 C26.311,-18.39 24.875,-16.953 24.875,-16.953 C24.875,-16.953 27.657,-14.17 27.657,-14.17 C28.458,-13.37 28.459000000000003,-12.856 27.664,-12.062z"></path></g></g><g></g><g></g><g transform="matrix(0.9993908294956555,0.03489942578303732,-0.03489942578303732,0.9993908294956555,1039.6985641699448,566.6106520088925)" opacity="1" style="user-select: none;"><g opacity="1" transform="matrix(1,0,0,1,0,0)"><path fill="rgb(255,255,255)" fill-opacity="1" d=" M-199.67361508234066,-59.74265198863855 C-211.84367499664978,-107.5189329350057 -275.6698797800365,-95.41659957965547 -268.18282839182405,-49.18949238311504 C-264.37625574561673,-30.847511725511573 -251.23305296061926,132.02803187965569 -133,65 C-135,78 -157,193 -157,193 C-157,193 -159,216 -142,220 C-147,228 -194.67903986850013,316.0369463045548 -94.8098212608138,365.3370106847769 C-99.53784963250031,375.4517619013647 -132.7033903644147,411.0422485661636 -105.98631046447801,418.71890525234767 C-79.26923056454132,426.3955619385317 -60.92069562815388,430.8240381901145 -48.673608803295316,408.7757175610824 C-36.42584292482702,386.7273969320503 2.611388860704018,354.5058672107856 -33.17885673474261,331.0236445317554 C-68.96910233018923,307.54074279911543 -89.8873459985882,296.4848311165245 -67,234 C-68,230 -83,230 -83,230 C-83,230 -35,236 -35,236 C-35,236 -50.98948309929379,317.924540949163 52.22138697358452,353.2001153967642 C51.193549829900476,363.0812946476584 39.198202570394365,407.80503607723165 63.023878413139805,411.4350594968414 C86.84955425588524,415.0650829164511 102.41215872479064,405.8398033939383 109.02684264475157,388.7789496155287 C115.64152656471248,371.7180958371191 137.48917468487173,302.1614309650952 109.2369213753652,297.7385164747237 C50.55650178142983,300.690102158738 66.40789704360917,285.27701402716417 56,248 C53,247 37,246 37,246 C37,246 71.608,252.778 75,227 C80,189 90.17581603717628,86.81956943534303 90.17581603717628,86.81956943534303 C90.17581603717628,86.81956943534303 63,89 63,89 C63,89 159.64837468763287,53.16214375993599 123.72704317360473,166.68241402152626 C109.37987837585712,210.55558087784453 166.69286892909943,222.1080677513773 182.17800514642667,191.1896550594651 C197.66314136375394,160.2712423675529 209.2520221815905,-1.1382864101519772 97.5856007548478,5.347017546871882 C91.5856007548478,-8.652982453128118 88,-36 -5,-46 C-28,-47 -92.1531550650452,-63.646677947113524 -120.1531550650452,-15.646677947113528 C-125.1531550650452,-18.646677947113528 -212.15337492778016,45.73367560524362 -199.67361508234066,-59.74265198863855z"></path><path stroke-linecap="butt" stroke-linejoin="round" fill-opacity="0" stroke="rgb(84,28,5)" stroke-opacity="1" stroke-width="16" d=" M-199.67361508234066,-59.74265198863855 C-211.84367499664978,-107.5189329350057 -275.6698797800365,-95.41659957965547 -268.18282839182405,-49.18949238311504 C-264.37625574561673,-30.847511725511573 -251.23305296061926,132.02803187965569 -133,65 C-135,78 -157,193 -157,193 C-157,193 -159,216 -142,220 C-147,228 -194.67903986850013,316.0369463045548 -94.8098212608138,365.3370106847769 C-99.53784963250031,375.4517619013647 -132.7033903644147,411.0422485661636 -105.98631046447801,418.71890525234767 C-79.26923056454132,426.3955619385317 -60.92069562815388,430.8240381901145 -48.673608803295316,408.7757175610824 C-36.42584292482702,386.7273969320503 2.611388860704018,354.5058672107856 -33.17885673474261,331.0236445317554 C-68.96910233018923,307.54074279911543 -89.8873459985882,296.4848311165245 -67,234 C-68,230 -83,230 -83,230 C-83,230 -35,236 -35,236 C-35,236 -50.98948309929379,317.924540949163 52.22138697358452,353.2001153967642 C51.193549829900476,363.0812946476584 39.198202570394365,407.80503607723165 63.023878413139805,411.4350594968414 C86.84955425588524,415.0650829164511 102.41215872479064,405.8398033939383 109.02684264475157,388.7789496155287 C115.64152656471248,371.7180958371191 137.48917468487173,302.1614309650952 109.2369213753652,297.7385164747237 C50.55650178142983,300.690102158738 66.40789704360917,285.27701402716417 56,248 C53,247 37,246 37,246 C37,246 71.608,252.778 75,227 C80,189 90.17581603717628,86.81956943534303 90.17581603717628,86.81956943534303 C90.17581603717628,86.81956943534303 63,89 63,89 C63,89 159.64837468763287,53.16214375993599 123.72704317360473,166.68241402152626 C109.37987837585712,210.55558087784453 166.69286892909943,222.1080677513773 182.17800514642667,191.1896550594651 C197.66314136375394,160.2712423675529 209.2520221815905,-1.1382864101519772 97.5856007548478,5.347017546871882 C91.5856007548478,-8.652982453128118 88,-36 -5,-46 C-28,-47 -92.1531550650452,-63.646677947113524 -120.1531550650452,-15.646677947113528 C-125.1531550650452,-18.646677947113528 -212.15337492778016,45.73367560524362 -199.67361508234066,-59.74265198863855z"></path></g></g><g transform="matrix(3.994518124162684,-0.20934410843353563,0.20934410843353563,3.994518124162684,186.3937714916583,135.63860095190523)" opacity="1" style="user-select: none;"><g opacity="1" transform="matrix(1,0,0,1,197.755,145.352)"><path fill="rgb(221,209,198)" fill-opacity="1" d=" M15.826,-10.771 C15.826,-10.771 -8.321,-17.242 -8.321,-17.242 C-12.055,-18.242 -15.893999999999998,-16.026 -16.894,-12.292 C-16.894,-12.292 -20.776,2.196 -20.776,2.196 C-21.777,5.93 -19.561,9.769 -15.826,10.769 C-15.826,10.769 8.322,17.24 8.322,17.24 C12.055,18.241 15.894,16.025 16.895,12.291 C16.895,12.291 20.777,-2.197 20.777,-2.197 C21.777,-5.931 19.561,-9.770000000000001 15.826,-10.771z"></path></g><g opacity="1" transform="matrix(1,0,0,1,198.79,141.488)"><path fill="rgb(255,255,255)" fill-opacity="1" d=" M14.602,-10.063 C14.602,-10.063 -7.615,-16.016 -7.615,-16.016 C-11.349,-17.017 -15.187,-14.801 -16.188,-11.067 C-16.188,-11.067 -19.553,1.491 -19.553,1.491 C-20.553,5.225 -18.337,9.063 -14.603,10.064 C-14.603,10.064 7.615,16.016 7.615,16.016 C11.348,17.017 15.187,14.801 16.188,11.067 C16.188,11.067 19.551,-1.49 19.551,-1.49 C20.552,-5.225 18.337,-9.063 14.602,-10.063z"></path></g><g opacity="1" transform="matrix(1,0,0,1,198.791,141.487)"><path fill="rgb(84,28,5)" fill-opacity="1" d=" M15.826,-10.77 C15.826,-10.77 -8.322,-17.241 -8.322,-17.241 C-12.056,-18.242 -15.895,-16.026 -16.895,-12.292 C-16.895,-12.292 -20.777,2.197 -20.777,2.197 C-21.777,5.931 -19.561,9.769 -15.826,10.77 C-15.826,10.77 8.322,17.242 8.322,17.242 C12.056,18.242 15.892000000000001,16.025 16.893,12.291 C16.893,12.291 20.777,-2.198 20.777,-2.198 C21.777,-5.932 19.560000000000002,-9.77 15.826,-10.77z M16.913,-3.233 C16.913,-3.233 13.029,11.256 13.029,11.256 C12.6,12.854000000000001 10.953000000000001,13.806000000000001 9.355,13.377 C9.355,13.377 -14.792,6.906 -14.792,6.906 C-16.39,6.478 -17.341,4.83 -16.913,3.232 C-16.913,3.232 -13.031,-11.256 -13.031,-11.256 C-12.602,-12.855 -10.955,-13.806000000000001 -9.357,-13.378 C-9.357,-13.378 14.79,-6.907 14.79,-6.907 C16.389,-6.479 17.341,-4.831 16.913,-3.233z"></path></g><g opacity="1" transform="matrix(1,0,0,1,192.023,139.681)"><path fill="rgb(255,170,76)" fill-opacity="1" d=" M0,-2.5 C1.381,-2.5 2.5,-1.38 2.5,0 C2.5,1.381 1.381,2.5 0,2.5 C-1.381,2.5 -2.5,1.381 -2.5,0 C-2.5,-1.38 -1.381,-2.5 0,-2.5z"></path></g><g opacity="1" transform="matrix(1,0,0,1,198.993,141.69)"><path fill="rgb(84,28,7)" fill-opacity="1" d=" M-5.541,-7.327 C-8.476,-8.113 -11.491,-6.372 -12.277,-3.437 C-13.062999999999999,-0.5029999999999997 -11.322,2.512 -8.388,3.299 C-5.452999999999999,4.085 -2.4379999999999997,2.344 -1.652,-0.592 C-0.8659999999999999,-3.524 -2.607,-6.541 -5.541,-7.327z M-5.523,-1.624 C-5.7379999999999995,-0.8240000000000001 -6.5600000000000005,-0.351 -7.36,-0.564 C-8.161,-0.7789999999999999 -8.635,-1.5999999999999999 -8.422,-2.4 C-8.207,-3.201 -7.385,-3.677 -6.584,-3.464 C-5.784,-3.2479999999999998 -5.308999999999999,-2.4250000000000003 -5.523,-1.624z M11.363,-2.798 C11.363,-2.798 4.6,-4.609 4.6,-4.609 C3.534,-4.894 2.437,-4.262 2.151,-3.195 C1.8649999999999998,-2.128 2.4989999999999997,-1.031 3.565,-0.745 C3.565,-0.745 10.327,1.067 10.327,1.067 C11.394,1.353 12.491,0.719 12.776,-0.348 C13.063,-1.415 12.43,-2.512 11.363,-2.798z M9.551,3.964 C9.551,3.964 2.789,2.152 2.789,2.152 C1.723,1.8650000000000002 0.626,2.5 0.34,3.566 C0.05400000000000005,4.633 0.687,5.7299999999999995 1.754,6.015 C1.754,6.015 8.516,7.827 8.516,7.827 C9.582,8.112 10.679,7.48 10.965,6.413 C11.251,5.347 10.617,4.25 9.551,3.964z"></path></g></g><g transform="matrix(3.984778765599662,-0.3486232769423736,0.3486232769423736,3.984778765599662,168.04175919139198,171.9265058486626)" opacity="1" style="user-select: none;"><g opacity="1" transform="matrix(1,0,0,1,218.865,80.092)"><path fill="rgb(255,255,255)" fill-opacity="1" d=" M11.128,-41.535 C-11.809999999999999,-47.681 -35.39,-34.068 -41.536,-11.13 C-47.682,11.809 -34.07,35.388999999999996 -11.13,41.535 C11.807999999999998,47.681 35.388,34.069 41.534,11.13 C47.681,-11.809 34.067,-35.388999999999996 11.128,-41.535z"></path></g><g opacity="1" transform="matrix(1,0,0,1,216.38,95.424)"><path fill="rgb(219,209,198)" fill-opacity="1" d=" M-6.056,16.543 C-26.254,11.131 -38.669000000000004,-8.811 -35.09,-29.023 C-35.486000000000004,-27.934 -35.847,-26.825000000000003 -36.152,-25.684 C-41.870000000000005,-4.346 -29.207,17.587 -7.868,23.305 C13.47,29.023 35.403,16.36 41.12,-4.979 C41.425,-6.119 41.668,-7.26 41.87,-8.402 C34.864,10.892000000000001 14.142,21.955 -6.056,16.543z"></path></g><g opacity="1" transform="matrix(1,0,0,1,218.865,80.092)"><path fill="rgb(84,28,5)" fill-opacity="1" d=" M11.128,-41.535 C-11.809999999999999,-47.681 -35.39,-34.068 -41.536,-11.13 C-47.682,11.809 -34.07,35.388999999999996 -11.13,41.535 C11.807999999999998,47.681 35.388,34.069 41.534,11.13 C47.681,-11.809 34.067,-35.388999999999996 11.128,-41.535z M37.671,10.094 C32.097,30.9 10.71,43.245999999999995 -10.096,37.672 C-30.901,32.096999999999994 -43.247,10.712 -37.672,-10.093 C-32.098,-30.899 -10.712,-43.246 10.093,-37.671 C30.899,-32.097 43.246,-10.711 37.671,10.094z"></path></g></g><g transform="matrix(1.7698149952415803,0.05534026579305805,-0.12042167851406488,3.85115772994873,800.8199037650361,79.51642412077456)" opacity="1" style="user-select: none;"><g opacity="1" transform="matrix(1,0,0,1,249.997,89.468)"><path fill="rgb(84,28,5)" fill-opacity="1" d=" M3.883,-14.488 C-1.1840000000000002,-15.846 -7.032000000000001,-10.46 -9.175,-2.458 C-11.321000000000002,5.5440000000000005 -8.95,13.131 -3.881,14.489 C1.185,15.846 7.0329999999999995,10.461 9.177,2.459 C11.321,-5.542 8.951,-13.129999999999999 3.883,-14.488z M5.313,1.425 C3.7089999999999996,7.409 -0.38900000000000023,11.285 -2.845,10.627 C-5.302,9.969000000000001 -6.915,4.563000000000001 -5.312,-1.422 C-3.708,-7.407 0.391,-11.282 2.848,-10.624 C5.304,-9.966000000000001 6.917,-4.559 5.313,1.425z"></path></g><g opacity="1" transform="matrix(1,0,0,1,254.819,90.766)"><path fill="rgb(255,255,255)" fill-opacity="1" d=" M-8.21,-2.2 C-6.209000000000001,-9.668 -0.9109999999999996,-14.738 3.623,-13.523 C8.157,-12.308 10.211,-5.2669999999999995 8.21,2.201 C6.209000000000001,9.669 0.9109999999999996,14.737 -3.623,13.523 C-8.157,12.308 -10.211,5.269 -8.21,-2.2z"></path></g><g opacity="1" transform="matrix(1,0,0,1,254.828,90.762)"><path fill="rgb(84,30,7)" fill-opacity="1" d=" M3.882,-14.488 C-1.1859999999999995,-15.846 -7.032,-10.46 -9.176,-2.458 C-11.321,5.5440000000000005 -8.951,13.132000000000001 -3.882,14.489 C1.1839999999999997,15.847000000000001 7.033,10.461 9.176,2.459 C11.321,-5.542 8.95,-13.129999999999999 3.882,-14.488z M5.313,1.424 C3.7089999999999996,7.4079999999999995 -0.3900000000000001,11.285 -2.846,10.627 C-5.302,9.969000000000001 -6.915,4.563000000000001 -5.312,-1.422 C-3.708,-7.404999999999999 0.3900000000000001,-11.282 2.847,-10.624 C5.303,-9.966000000000001 6.917,-4.5600000000000005 5.313,1.424z"></path></g></g><g transform="matrix(4.356831810982171,-0.6646660728620156,0.5677902733676282,3.7218188590888075,137.41471189464232,304.99400599757234)" opacity="1" style="user-select: none;"><g opacity="1" transform="matrix(1,0,0,1,204.375,76.209)"><path fill="rgb(84,28,5)" fill-opacity="1" d=" M10.784,-20.922 C10.784,-20.922 1.124,-23.51 1.124,-23.51 C-11.147,-26.798000000000002 -23.758,-19.517000000000003 -27.046,-7.246 C-30.334,5.023999999999999 -23.052,17.634999999999998 -10.783,20.923 C-10.783,20.923 -1.123,23.511 -1.123,23.511 C11.148000000000001,26.798 23.759,19.518 27.047,7.247 C30.334,-5.022 23.053,-17.635 10.784,-20.922z M23.183,6.212 C20.471,16.332 10.033,22.358 -0.089,19.648 C-0.089,19.648 -9.747,17.059 -9.747,17.059 C-19.866,14.348 -25.892999999999997,3.908999999999999 -23.182,-6.211 C-20.47,-16.331 -10.032,-22.357 0.089,-19.647 C0.089,-19.647 9.747,-17.059 9.747,-17.059 C19.866999999999997,-14.347000000000001 25.895,-3.907 23.183,6.212z"></path></g><g opacity="1" transform="matrix(1,0,0,1,200.072,70.49)"><path fill="rgb(255,170,76)" fill-opacity="1" d=" M3.356,-10.063 C2.304,-10.345 1.2489999999999999,-10.501 0.202,-10.551 C0.202,-10.551 -13.86,-2.433 -13.86,-2.433 C-14.338999999999999,-1.501 -14.733,-0.5089999999999999 -15.015,0.544 C-15.244,1.3980000000000001 -15.376999999999999,2.2540000000000004 -15.453,3.107 C-15.453,3.107 6.089,-9.331 6.089,-9.331 C6.089,-9.331 3.356,-10.063 3.356,-10.063z M13.016,-7.475 C13.016,-7.475 10.285,-8.207 10.285,-8.207 C10.285,-8.207 -15.362,6.599 -15.362,6.599 C-15.159,7.972 -14.768,9.301 -14.207,10.551 C-14.207,10.551 15.454,-6.574 15.454,-6.574 C14.678,-6.934 13.87,-7.247 13.016,-7.475z"></path></g></g><g clip-path="url(#cp_o8FQxxZG)" transform="matrix(5.5,0,0,5.5,-4228.25,-2439.25)" opacity="1"><g transform="matrix(0.6,0,0,0.6,746.7838,474.5372)" opacity="0" style="user-select: none; display: block;"><g opacity="1" transform="matrix(0.99342,0,0,0.99342,89.767,22.083)"><path fill="rgb(252,209,114)" fill-opacity="1" d=" M0,-19.2665 C10.63318135,-19.2665 19.2665,-10.63318135 19.2665,0 C19.2665,10.63318135 10.63318135,19.2665 0,19.2665 C-10.63318135,19.2665 -19.2665,10.63318135 -19.2665,0 C-19.2665,-10.63318135 -10.63318135,-19.2665 0,-19.2665z" style="display: block;"></path><path stroke-linecap="butt" stroke-linejoin="miter" fill-opacity="0" stroke-miterlimit="4" style="display: block;" stroke="rgb(0,0,0)" stroke-opacity="1" stroke-width="8" d=" M0,-19.2665 C10.63318135,-19.2665 19.2665,-10.63318135 19.2665,0 C19.2665,10.63318135 10.63318135,19.2665 0,19.2665 C-10.63318135,19.2665 -19.2665,10.63318135 -19.2665,0 C-19.2665,-10.63318135 -10.63318135,-19.2665 0,-19.2665z"></path></g></g><g transform="matrix(0.6,0,0,0.6,746.7838,473.7872)" opacity="1" style="user-select: none; display: block;"><g opacity="1" transform="matrix(1,0,0,1,0,0)"><path stroke-linecap="round" stroke-linejoin="miter" fill-opacity="0" stroke-miterlimit="4" style="display: block;" stroke="rgb(219,209,198)" stroke-opacity="1" stroke-width="3" d=""></path></g></g><g transform="matrix(0.4242640687119285,0.42426406871192845,-0.42426406871192845,0.4242640687119285,772.4584408591918,439.80273382868086)" opacity="1" style="user-select: none; display: block;"><g opacity="1" transform="matrix(1,0,0,1,0,0)"><path stroke-linecap="round" stroke-linejoin="miter" fill-opacity="0" stroke-miterlimit="4" style="display: block;" stroke="rgb(219,209,198)" stroke-opacity="1" stroke-width="3" d=""></path></g></g><g transform="matrix(3.6739403974420595e-17,0.6,-0.6,3.6739403974420595e-17,814.6438,433.92679999999996)" opacity="1" style="user-select: none; display: block;"><g opacity="1" transform="matrix(1,0,0,1,0,0)"><path stroke-linecap="round" stroke-linejoin="miter" fill-opacity="0" stroke-miterlimit="4" style="display: block;" stroke="rgb(219,209,198)" stroke-opacity="1" stroke-width="3" d=""></path></g></g><g transform="matrix(-0.42426406871192845,0.4242640687119285,-0.4242640687119285,-0.42426406871192845,848.6282661713192,459.6014408591917)" opacity="1" style="user-select: none; display: block;"><g opacity="1" transform="matrix(1,0,0,1,0,0)"><path stroke-linecap="round" stroke-linejoin="miter" fill-opacity="0" stroke-miterlimit="4" style="display: block;" stroke="rgb(219,209,198)" stroke-opacity="1" stroke-width="3" d=""></path></g></g><g transform="matrix(-0.6,7.347880794884119e-17,-7.347880794884119e-17,-0.6,854.5042000000001,501.78679999999997)" opacity="1" style="user-select: none; display: block;"><g opacity="1" transform="matrix(1,0,0,1,0,0)"><path stroke-linecap="round" stroke-linejoin="miter" fill-opacity="0" stroke-miterlimit="4" style="display: block;" stroke="rgb(219,209,198)" stroke-opacity="1" stroke-width="3" d=""></path></g></g><g transform="matrix(-0.4242640687119286,-0.42426406871192845,0.42426406871192845,-0.4242640687119286,828.8295591408083,535.7712661713191)" opacity="1" style="user-select: none; display: block;"><g opacity="1" transform="matrix(1,0,0,1,0,0)"><path stroke-linecap="round" stroke-linejoin="miter" fill-opacity="0" stroke-miterlimit="4" style="display: block;" stroke="rgb(219,209,198)" stroke-opacity="1" stroke-width="3" d=""></path></g></g><g transform="matrix(-1.1021821192326178e-16,-0.6,0.6,-1.1021821192326178e-16,786.6442000000001,541.6472)" opacity="1" style="user-select: none; display: block;"><g opacity="1" transform="matrix(1,0,0,1,0,0)"><path stroke-linecap="round" stroke-linejoin="miter" fill-opacity="0" stroke-miterlimit="4" style="display: block;" stroke="rgb(219,209,198)" stroke-opacity="1" stroke-width="3" d=""></path></g></g><g transform="matrix(0.4242640687119284,-0.4242640687119286,0.4242640687119286,0.4242640687119284,752.6597338286809,515.9725591408082)" opacity="1" style="user-select: none; display: block;"><g opacity="1" transform="matrix(1,0,0,1,0,0)"><path stroke-linecap="round" stroke-linejoin="miter" fill-opacity="0" stroke-miterlimit="4" style="display: block;" stroke="rgb(219,209,198)" stroke-opacity="1" stroke-width="3" d=""></path></g></g></g><g clip-path="url(#cp_lJe6XKCu)" transform="matrix(4.22,0,0,4.22,-2819.6099999999997,-1723.9699999999998)" opacity="1"><g transform="matrix(0.6,0,0,0.6,746.7838,474.5372)" opacity="0" style="user-select: none; display: block;"><g opacity="1" transform="matrix(0.99342,0,0,0.99342,89.767,22.083)"><path fill="rgb(252,209,114)" fill-opacity="1" d=" M0,-19.2665 C10.63318135,-19.2665 19.2665,-10.63318135 19.2665,0 C19.2665,10.63318135 10.63318135,19.2665 0,19.2665 C-10.63318135,19.2665 -19.2665,10.63318135 -19.2665,0 C-19.2665,-10.63318135 -10.63318135,-19.2665 0,-19.2665z" style="display: block;"></path><path stroke-linecap="butt" stroke-linejoin="miter" fill-opacity="0" stroke-miterlimit="4" style="display: block;" stroke="rgb(0,0,0)" stroke-opacity="1" stroke-width="8" d=" M0,-19.2665 C10.63318135,-19.2665 19.2665,-10.63318135 19.2665,0 C19.2665,10.63318135 10.63318135,19.2665 0,19.2665 C-10.63318135,19.2665 -19.2665,10.63318135 -19.2665,0 C-19.2665,-10.63318135 -10.63318135,-19.2665 0,-19.2665z"></path></g></g><g transform="matrix(0.6,0,0,0.6,746.7838,473.7872)" opacity="1" style="user-select: none; display: block;"><g opacity="1" transform="matrix(1,0,0,1,0,0)"><path stroke-linecap="round" stroke-linejoin="miter" fill-opacity="0" stroke-miterlimit="4" style="display: block;" stroke="rgb(219,209,198)" stroke-opacity="1" stroke-width="3" d=""></path></g></g><g transform="matrix(0.4242640687119285,0.42426406871192845,-0.42426406871192845,0.4242640687119285,772.4584408591918,439.80273382868086)" opacity="1" style="user-select: none; display: block;"><g opacity="1" transform="matrix(1,0,0,1,0,0)"><path stroke-linecap="round" stroke-linejoin="miter" fill-opacity="0" stroke-miterlimit="4" style="display: block;" stroke="rgb(219,209,198)" stroke-opacity="1" stroke-width="3" d=""></path></g></g><g transform="matrix(3.6739403974420595e-17,0.6,-0.6,3.6739403974420595e-17,814.6438,433.92679999999996)" opacity="1" style="user-select: none; display: block;"><g opacity="1" transform="matrix(1,0,0,1,0,0)"><path stroke-linecap="round" stroke-linejoin="miter" fill-opacity="0" stroke-miterlimit="4" style="display: block;" stroke="rgb(219,209,198)" stroke-opacity="1" stroke-width="3" d=""></path></g></g><g transform="matrix(-0.42426406871192845,0.4242640687119285,-0.4242640687119285,-0.42426406871192845,848.6282661713192,459.6014408591917)" opacity="1" style="user-select: none; display: block;"><g opacity="1" transform="matrix(1,0,0,1,0,0)"><path stroke-linecap="round" stroke-linejoin="miter" fill-opacity="0" stroke-miterlimit="4" style="display: block;" stroke="rgb(219,209,198)" stroke-opacity="1" stroke-width="3" d=""></path></g></g><g transform="matrix(-0.6,7.347880794884119e-17,-7.347880794884119e-17,-0.6,854.5042000000001,501.78679999999997)" opacity="1" style="user-select: none; display: block;"><g opacity="1" transform="matrix(1,0,0,1,0,0)"><path stroke-linecap="round" stroke-linejoin="miter" fill-opacity="0" stroke-miterlimit="4" style="display: block;" stroke="rgb(219,209,198)" stroke-opacity="1" stroke-width="3" d=""></path></g></g><g transform="matrix(-0.4242640687119286,-0.42426406871192845,0.42426406871192845,-0.4242640687119286,828.8295591408083,535.7712661713191)" opacity="1" style="user-select: none; display: block;"><g opacity="1" transform="matrix(1,0,0,1,0,0)"><path stroke-linecap="round" stroke-linejoin="miter" fill-opacity="0" stroke-miterlimit="4" style="display: block;" stroke="rgb(219,209,198)" stroke-opacity="1" stroke-width="3" d=""></path></g></g><g transform="matrix(-1.1021821192326178e-16,-0.6,0.6,-1.1021821192326178e-16,786.6442000000001,541.6472)" opacity="1" style="user-select: none; display: block;"><g opacity="1" transform="matrix(1,0,0,1,0,0)"><path stroke-linecap="round" stroke-linejoin="miter" fill-opacity="0" stroke-miterlimit="4" style="display: block;" stroke="rgb(219,209,198)" stroke-opacity="1" stroke-width="3" d=""></path></g></g><g transform="matrix(0.4242640687119284,-0.4242640687119286,0.4242640687119286,0.4242640687119284,752.6597338286809,515.9725591408082)" opacity="1" style="user-select: none; display: block;"><g opacity="1" transform="matrix(1,0,0,1,0,0)"><path stroke-linecap="round" stroke-linejoin="miter" fill-opacity="0" stroke-miterlimit="4" style="display: block;" stroke="rgb(219,209,198)" stroke-opacity="1" stroke-width="3" d=""></path></g></g></g><g clip-path="url(#cp_CIF8QUKu)" transform="matrix(5.5,0,0,5.5,-2840.25,-2025.25)" opacity="1"><g transform="matrix(0.6,0,0,0.6,746.7838,474.5372)" opacity="0" style="user-select: none; display: block;"><g opacity="1" transform="matrix(0.99342,0,0,0.99342,89.767,22.083)"><path fill="rgb(252,209,114)" fill-opacity="1" d=" M0,-19.2665 C10.63318135,-19.2665 19.2665,-10.63318135 19.2665,0 C19.2665,10.63318135 10.63318135,19.2665 0,19.2665 C-10.63318135,19.2665 -19.2665,10.63318135 -19.2665,0 C-19.2665,-10.63318135 -10.63318135,-19.2665 0,-19.2665z" style="display: block;"></path><path stroke-linecap="butt" stroke-linejoin="miter" fill-opacity="0" stroke-miterlimit="4" style="display: block;" stroke="rgb(0,0,0)" stroke-opacity="1" stroke-width="8" d=" M0,-19.2665 C10.63318135,-19.2665 19.2665,-10.63318135 19.2665,0 C19.2665,10.63318135 10.63318135,19.2665 0,19.2665 C-10.63318135,19.2665 -19.2665,10.63318135 -19.2665,0 C-19.2665,-10.63318135 -10.63318135,-19.2665 0,-19.2665z"></path></g></g><g transform="matrix(0.6,0,0,0.6,746.7838,473.7872)" opacity="1" style="user-select: none; display: block;"><g opacity="1" transform="matrix(1,0,0,1,0,0)"><path stroke-linecap="round" stroke-linejoin="miter" fill-opacity="0" stroke-miterlimit="4" style="display: block;" stroke="rgb(219,209,198)" stroke-opacity="1" stroke-width="3" d=""></path></g></g><g transform="matrix(0.4242640687119285,0.42426406871192845,-0.42426406871192845,0.4242640687119285,772.4584408591918,439.80273382868086)" opacity="1" style="user-select: none; display: block;"><g opacity="1" transform="matrix(1,0,0,1,0,0)"><path stroke-linecap="round" stroke-linejoin="miter" fill-opacity="0" stroke-miterlimit="4" style="display: block;" stroke="rgb(219,209,198)" stroke-opacity="1" stroke-width="3" d=""></path></g></g><g transform="matrix(3.6739403974420595e-17,0.6,-0.6,3.6739403974420595e-17,814.6438,433.92679999999996)" opacity="1" style="user-select: none; display: block;"><g opacity="1" transform="matrix(1,0,0,1,0,0)"><path stroke-linecap="round" stroke-linejoin="miter" fill-opacity="0" stroke-miterlimit="4" style="display: block;" stroke="rgb(219,209,198)" stroke-opacity="1" stroke-width="3" d=""></path></g></g><g transform="matrix(-0.42426406871192845,0.4242640687119285,-0.4242640687119285,-0.42426406871192845,848.6282661713192,459.6014408591917)" opacity="1" style="user-select: none; display: block;"><g opacity="1" transform="matrix(1,0,0,1,0,0)"><path stroke-linecap="round" stroke-linejoin="miter" fill-opacity="0" stroke-miterlimit="4" style="display: block;" stroke="rgb(219,209,198)" stroke-opacity="1" stroke-width="3" d=""></path></g></g><g transform="matrix(-0.6,7.347880794884119e-17,-7.347880794884119e-17,-0.6,854.5042000000001,501.78679999999997)" opacity="1" style="user-select: none; display: block;"><g opacity="1" transform="matrix(1,0,0,1,0,0)"><path stroke-linecap="round" stroke-linejoin="miter" fill-opacity="0" stroke-miterlimit="4" style="display: block;" stroke="rgb(219,209,198)" stroke-opacity="1" stroke-width="3" d=""></path></g></g><g transform="matrix(-0.4242640687119286,-0.42426406871192845,0.42426406871192845,-0.4242640687119286,828.8295591408083,535.7712661713191)" opacity="1" style="user-select: none; display: block;"><g opacity="1" transform="matrix(1,0,0,1,0,0)"><path stroke-linecap="round" stroke-linejoin="miter" fill-opacity="0" stroke-miterlimit="4" style="display: block;" stroke="rgb(219,209,198)" stroke-opacity="1" stroke-width="3" d=""></path></g></g><g transform="matrix(-1.1021821192326178e-16,-0.6,0.6,-1.1021821192326178e-16,786.6442000000001,541.6472)" opacity="1" style="user-select: none; display: block;"><g opacity="1" transform="matrix(1,0,0,1,0,0)"><path stroke-linecap="round" stroke-linejoin="miter" fill-opacity="0" stroke-miterlimit="4" style="display: block;" stroke="rgb(219,209,198)" stroke-opacity="1" stroke-width="3" d=""></path></g></g><g transform="matrix(0.4242640687119284,-0.4242640687119286,0.4242640687119286,0.4242640687119284,752.6597338286809,515.9725591408082)" opacity="1" style="user-select: none; display: block;"><g opacity="1" transform="matrix(1,0,0,1,0,0)"><path stroke-linecap="round" stroke-linejoin="miter" fill-opacity="0" stroke-miterlimit="4" style="display: block;" stroke="rgb(219,209,198)" stroke-opacity="1" stroke-width="3" d=""></path></g></g></g></g></svg>